<mxfile host="app.diagrams.net" agent="Mozilla/5.0 (Windows NT 10.0; Win64; x64) AppleWebKit/537.36 (KHTML, like Gecko) Chrome/134.0.0.0 Safari/537.36 OPR/119.0.0.0" version="27.1.6">
  <diagram name="Seite-1" id="SgFTbVYPc5gPEPlRsAPC">
    <mxGraphModel dx="791" dy="432" grid="1" gridSize="10" guides="1" tooltips="1" connect="1" arrows="1" fold="1" page="1" pageScale="1" pageWidth="827" pageHeight="1169" math="0" shadow="0">
      <root>
        <mxCell id="0" />
        <mxCell id="1" parent="0" />
        <mxCell id="3GcPlbI8JUl-vQ_FGAqm-8" style="edgeStyle=orthogonalEdgeStyle;rounded=0;orthogonalLoop=1;jettySize=auto;html=1;entryX=0;entryY=0.5;entryDx=0;entryDy=0;fillColor=#FF0000;strokeColor=#FF0000;exitX=0.816;exitY=0.489;exitDx=0;exitDy=0;exitPerimeter=0;" parent="1" edge="1">
          <mxGeometry relative="1" as="geometry">
            <Array as="points">
              <mxPoint x="200" y="220" />
            </Array>
            <mxPoint x="280" y="220" as="targetPoint" />
          </mxGeometry>
        </mxCell>
        <mxCell id="3GcPlbI8JUl-vQ_FGAqm-31" value="100 MHz" style="edgeLabel;html=1;align=center;verticalAlign=middle;resizable=0;points=[];" parent="3GcPlbI8JUl-vQ_FGAqm-8" vertex="1" connectable="0">
          <mxGeometry x="0.1101" y="1" relative="1" as="geometry">
            <mxPoint as="offset" />
          </mxGeometry>
        </mxCell>
        <mxCell id="3GcPlbI8JUl-vQ_FGAqm-12" style="edgeStyle=orthogonalEdgeStyle;rounded=0;orthogonalLoop=1;jettySize=auto;html=1;fillColor=#0000FF;strokeColor=#0000FF;entryX=0.5;entryY=0;entryDx=0;entryDy=0;" parent="1" source="3GcPlbI8JUl-vQ_FGAqm-11" target="qcTJSZBWuV6xtaptYTv2-9" edge="1">
          <mxGeometry relative="1" as="geometry">
            <mxPoint x="380" y="199.3" as="targetPoint" />
          </mxGeometry>
        </mxCell>
        <mxCell id="3GcPlbI8JUl-vQ_FGAqm-32" value="RF&lt;br&gt;Signal" style="edgeLabel;html=1;align=center;verticalAlign=middle;resizable=0;points=[];" parent="3GcPlbI8JUl-vQ_FGAqm-12" vertex="1" connectable="0">
          <mxGeometry x="-0.225" relative="1" as="geometry">
            <mxPoint as="offset" />
          </mxGeometry>
        </mxCell>
        <mxCell id="3GcPlbI8JUl-vQ_FGAqm-11" value="AWG" style="rounded=0;whiteSpace=wrap;html=1;" parent="1" vertex="1">
          <mxGeometry x="360" y="39.3" width="80" height="40" as="geometry" />
        </mxCell>
        <mxCell id="do8SZg7GIAW0Qb1SnnI4-14" style="edgeStyle=orthogonalEdgeStyle;rounded=0;orthogonalLoop=1;jettySize=auto;html=1;exitX=0.5;exitY=0;exitDx=0;exitDy=0;" parent="1" source="3GcPlbI8JUl-vQ_FGAqm-20" edge="1">
          <mxGeometry relative="1" as="geometry">
            <mxPoint x="688" y="120" as="targetPoint" />
          </mxGeometry>
        </mxCell>
        <mxCell id="3GcPlbI8JUl-vQ_FGAqm-20" value="AI" style="shape=hexagon;perimeter=hexagonPerimeter2;whiteSpace=wrap;html=1;fixedSize=1;" parent="1" vertex="1">
          <mxGeometry x="648.02" y="140" width="80" height="40" as="geometry" />
        </mxCell>
        <mxCell id="qcTJSZBWuV6xtaptYTv2-6" style="edgeStyle=orthogonalEdgeStyle;rounded=0;orthogonalLoop=1;jettySize=auto;html=1;entryX=0;entryY=0.5;entryDx=0;entryDy=0;fillColor=#FF0000;strokeColor=#FF0000;exitX=1;exitY=0.5;exitDx=0;exitDy=0;exitPerimeter=0;" parent="1" source="qcTJSZBWuV6xtaptYTv2-8" target="qcTJSZBWuV6xtaptYTv2-9" edge="1">
          <mxGeometry relative="1" as="geometry">
            <Array as="points" />
          </mxGeometry>
        </mxCell>
        <mxCell id="qcTJSZBWuV6xtaptYTv2-8" value="Laser" style="strokeWidth=2;html=1;shape=mxgraph.flowchart.direct_data;whiteSpace=wrap;" parent="1" vertex="1">
          <mxGeometry x="240" y="140.7" width="80" height="40" as="geometry" />
        </mxCell>
        <mxCell id="qcTJSZBWuV6xtaptYTv2-9" value="AOM" style="shape=process;whiteSpace=wrap;html=1;backgroundOutline=1;" parent="1" vertex="1">
          <mxGeometry x="360" y="140" width="80" height="40" as="geometry" />
        </mxCell>
        <mxCell id="qcTJSZBWuV6xtaptYTv2-10" style="edgeStyle=orthogonalEdgeStyle;rounded=0;orthogonalLoop=1;jettySize=auto;html=1;fillColor=#FF0000;strokeColor=#FF0000;exitX=1;exitY=0.5;exitDx=0;exitDy=0;" parent="1" source="qcTJSZBWuV6xtaptYTv2-9" edge="1">
          <mxGeometry relative="1" as="geometry">
            <mxPoint x="440" y="159.70999999999998" as="sourcePoint" />
            <mxPoint x="480" y="160" as="targetPoint" />
          </mxGeometry>
        </mxCell>
        <mxCell id="do8SZg7GIAW0Qb1SnnI4-12" style="edgeStyle=orthogonalEdgeStyle;rounded=0;orthogonalLoop=1;jettySize=auto;html=1;entryX=0;entryY=0.5;entryDx=0;entryDy=0;exitX=0.5;exitY=1;exitDx=0;exitDy=0;" parent="1" source="qcTJSZBWuV6xtaptYTv2-11" target="do8SZg7GIAW0Qb1SnnI4-2" edge="1">
          <mxGeometry relative="1" as="geometry" />
        </mxCell>
        <mxCell id="qcTJSZBWuV6xtaptYTv2-11" value="Photo Detector" style="rounded=0;whiteSpace=wrap;html=1;" parent="1" vertex="1">
          <mxGeometry x="480" y="140" width="80" height="40" as="geometry" />
        </mxCell>
        <mxCell id="do8SZg7GIAW0Qb1SnnI4-15" style="edgeStyle=orthogonalEdgeStyle;rounded=0;orthogonalLoop=1;jettySize=auto;html=1;entryX=1;entryY=0.5;entryDx=0;entryDy=0;" parent="1" source="do8SZg7GIAW0Qb1SnnI4-1" target="3GcPlbI8JUl-vQ_FGAqm-11" edge="1">
          <mxGeometry relative="1" as="geometry" />
        </mxCell>
        <mxCell id="do8SZg7GIAW0Qb1SnnI4-1" value="" style="shape=image;verticalLabelPosition=bottom;labelBackgroundColor=default;verticalAlign=top;aspect=fixed;imageAspect=0;image=data:image/png,iVBORw0KGgoAAAANSUhEUgAAA24AAAGjCAYAAABUuEYkAAAAOnRFWHRTb2Z0d2FyZQBNYXRwbG90bGliIHZlcnNpb24zLjEwLjEsIGh0dHBzOi8vbWF0cGxvdGxpYi5vcmcvc2/+5QAAAAlwSFlzAAAPYQAAD2EBqD+naQAAYHNJREFUeJzt3QmczPX/wPH3WnJfObKs+0wp5Co5QyXlTJdyhahckegQ9VNRjpQ/JVdIJZ1U5FYioRRSjljWlftY1pr/4/3Rd5rZnZmd2WP2Ozuv5+Mxzez3mu9852Oa97w/n/cnwuFwOAQAAAAAYFtZMvoEAAAAAAC+EbgBAAAAgM0RuAEAAACAzRG4AQAAAIDNEbgBAAAAgM0RuAEAAACAzRG4AQAAAIDNEbgBAAAAgM0RuAEAAACAzRG4AQAAAIDNEbgBQDpYuXKlREREOG8//PCD123HjBnj3O6LL77wedwJEyY4ty1VqlSy51G2bFmzbbFixXxud+nSJfnkk0+kZ8+eUq1aNSlatKhky5ZN8ufPLxUqVJC2bdua89y9e7eklnX+jRs3TvWxwll8fLzMmTPHvDdlypSRXLlymfesUKFCUr16dXnooYdk4sSJsmPHjow+VQBAGiBwA4B0MHPmTLe/Z82a5XXbBg0aOB+vXr3a53Fd1+/bt0/+/vtvr9vGxMTInj17kjxHYhosXnvttdKhQwd599135bfffpMjR46YYO7UqVOyc+dO+eyzz+Tpp5+WcuXKSatWrcw2CDxYffHFF9PkeH/88YfUrFlTOnXqZN4bbQfnz58379mxY8fkl19+kblz50rfvn2lcuXKEhcXJ5mV/gDADwEAwkHWjD4BAMhs9Av0/PnzzeM8efLImTNn5KOPPjLZsuzZsyfZ/qabbjLZknPnziUbuK1Zs8bcR0ZGSkJCgtm+dOnSHrd1PVbDhg09bvPyyy/LCy+8IA6Hw/ytX341MLvhhhtM5kbPKTY2VlatWiVfffWVCQQXLlwo0dHRMnny5ACuCtLKP//8I02bNpUDBw6Yvxs1amQCuKpVq5p2dPz4cRNYL1++XL755hvTHgEAoY/ADQDS2KeffiqnT582j998803p1q2b+TL95ZdfmqxWYtq97eabb5alS5fKxo0bTbCkX8A9ZVkOHTpksgt6nA8//NAEVPqlPSWB27Rp0+T55583j6+55hqZN2+e16zFvffeK+PHjzfbDBs2LICrgbT26quvOoO24cOHe8ziNWnSRJ588knTDqdPn24CfQBAaKOrJACkMatbpGatunbtarqquS73xOrKqOOW1q5d6zMQu+6660xWzHWZr+0LFChgxq250m6Wjz/+uHmcL18+k8lLrquZfvnXcVPaDe+uu+7yuS3Sz+eff+4MtjVb6kvevHlNd0n9cQAAENoI3AAgDWm3wu+++848tjJh1r12W9OxY564ZsS8BWPWcg3ybr31VvN4+/btHo+p45x+//1381i3zZLF/eN+7NixznFP//vf/0wBEn9pIHj33XdLsMaD/fTTT/LAAw+Y7pna1bREiRLy8MMPy7Zt27weY8aMGc7jaPfOCxcuyOuvv27GhWnBFQ1W69atK5MmTTJdTr3Roh96jC5duvg8Z12v2+n2nva3jBgxwq1ojT/HTmzv3r3OwjOJ39fUjA3TjK4Wp9Hj5siRQ6KioqRjx47y448/+nW8gwcPyrPPPiu1atWSq6++2rxXJUuWNMew/k0kR9vyyJEjpX79+s4COQULFjTvlY6x/PXXX5Nccy0E5KkgkKf3I3HbWrZsmckm63nqc7lu7+09Ta6tJdeGNKuuP4Doc+bMmdP82xs4cKAcPXrUbT8taKTnpkWI9P0oX768DBkyxJnNBxCGHACANDNmzBgdLObIkiWLIyYmxizbtWuXIyIiwiyfMGGCx/3OnTvnuOqqq8w2TZo08bhNmTJlzPo5c+aYv0uUKGH+/uSTT5Js+8UXX5h1ehs9erTbusuXLzsKFSpk1uXNm9dx5swZRzBZ59WoUSOf64cPH+54++23HVmzZnUuc73lypXLsXLlSo/HmD59unO7jRs3Om666SaPx9Bbw4YNHadPn/Z4nNKlS5ttOnfu7PM16XrdTrf3tL+vW3LHTkzfM92vcOHCjvj4eEdK6fW33odFixY5cufO7fH8tC2PGzfO57Fmz57tdX/r1r17d5/n688xXK+vdc393T5x2xo2bJhfx098DF9tbffu3T7b0KxZs5z/zhPfKlWq5IiNjXV+jlifGYlvNWvW9NpeAWRuZNwAIA29//775l6zGJoZUprBuOWWW3x2l9Rf3jVTodatW2e6THqrEGll26x7Txk6X+PbtHCFFriwsne5c+cWO/r222/NOC3tGqrj8TTzpmP6BgwYYDJNOhZQM28XL170eZxevXrJzz//LPfdd58sWrRINmzYYCou1q5d26zXY+px0sPixYtly5Ytzr979+5t/na9acYzEJo1VJqh6d+/f7KvPzk6Xu7BBx+UrFmzyqhRo0ymR296XpqZvHz5srnmWr3SEy28o9fv7NmzpuqoZnM1u6zXXKeYaNmypdnuvffeM1kzb/9uNDOtx9Dskr7v+l5pdkrfn7feektatGjhlmHU89PrZ/270fvE11avvycLFiwwr1W7EGvbWr9+vcnYaeYrvWgX40cffdRk2Kz2rBk/KyOv0zYMGjTInNvgwYNNllGne9D2qtfTuo56TbSoEIAwlNGRIwBkFps2bXL+Kj5t2jS3df/3f//nXPf777973H/IkCHObdauXeu2bu7cuWZ5qVKlnMsmTpxolmk2KbF69eqZdZrBSJzl0MyG9TzPPfecI9j8zbjprWXLlo4LFy4k2ebll192brNgwQKfWRC9jRo1Ksk2el1uv/125zYLFy5M84ybp0xPas2fP9/ttV1zzTWOnj17OmbOnOnYtm2byagGknHTW/78+R1bt25Nss1vv/3myJcvn9lGM7wXL150W3/kyBGzr67v1q2b14yald3S7N327dvd1h04cMBkT3V90aJFHVu2bPF6znv37vX6Ory1J1eu1+22225zxMXFed02rTNuervlllscZ8+eTbJNhw4dzPrIyEjH1Vdf7Wjfvr3j0qVLbtvo39a/a82YpybbCiA0kXEDgDRiZdM0e9a+fXu3dTrO56qrrnLbLpBxbtbfVpbN9fHmzZvdxr1o+XfNdiitVqmZFFeuY2mKFCni9fVopkWzc95uibOCaU0zL1oR0bpurrTghrU8uSkUtEjMM888k2S5XpepU6c6C3foeLdQoG1Lq0laY+e00ug777wjnTt3NvPx6fiy1q1bm6yiv++RVhfVfRPTbKeOW1P79+93Fkax/N///Z+cPHnSZJf1+iVua65j+3QbbVOJ279OEq7ZU6Wv4/rrr/d6njouLC1o5k7fe0/Tc6QXfb/0OT1VjO3Tp4+51/GWOvZUr0PiSqD6t45BVJox37p1a5DOHIBdELgBQBrQiY/1i7LSwh3axcyVfpm2ujpp9yf9ApuYFmSwuoJp9zBX1t+ugZsGJPo8+mVPu7ZZtJiE9YXd0zQArkGer26SOvm2diXzdtMv8umpefPmpkCFt2qJFStWNI937drl8zga0LgWCHGlBU+0C55asWKFz0IldqLFNbRLrU4LoQGuqxMnTphJ1bUAhgZe2tXOF702eo280cqo1vVLXGREn0dplVNfQZAGdPojgkpcNVXnB1TazfKee+6RYNB/a8kVHUlr+u/VU3CsbrzxRrd2r58XyW2XXLsHkPkQuAFAGo3H0syH8javmrVcx6vp5MiJabVD/XKnvv/+e+ek2Foh0vp13Zo2QGmQZ42dc806uT523d416LHomCK7qlKlis/11pfb5KrsWWPZvKlTp47zWoTSl2F9XR9//LFpHzpW6pVXXjGBnGsW9c8//zTjLTVD6o2OwSxcuLDX9Xo8K8hxHa+nQa5me9WUKVOSVHRMfLMmpdfqkxb9gcE6N/1RwluAndasf2fBVKlSJZ+VWgPdjuqSQPghcAOANGB1/ypUqJDccccdHrfRrIT1xSu57pI6Ybf1hVbnWNMgTsuiawbFlacCJdZj7UpYr169JM+h52jxNj2B0nPV53W9+crMpDVPXcpcWdnJ5LJk3rJ2Fp0PzaJBUKjRrrk64bZ2B9VATqek0EngrW6FGpBqEZOUXh/Xa+R6ffSxZpoDZXWLtI5h/UCh0w8Ei/5bCjZf7dm16Iq/24VKdhhA2vHcGR0A4Dcd42N1GdOxJ57GZCWmleN0TFDirooauL355pvO7pHaJdHqJqnZtcQZCStw06p4OleZjoOxuqJpRiZxN7rE3a02bdokmV2wsjh2oW2gTZs2Zt4vrbSoVSc1I6dBkqcueCm9Pq6Bg1ZL7Nevn1/7+fPvI70lHj8GAKGAwA0AUknLoVuTWfvrzJkzJnhLXIbetWujZs4ef/xxt4m3PXXz0y/C+vxaXlwfW90fPY1vU1r8QbNuGmTqsTUDklx2K5RpF1Zf3c+sLq4qcWBjZTg8jUl0Zccupxr0a0l5fY81q7Vz506PgZvr6/fG2sZ1f9fHenxfRUW80WPoNdbrq5lCOwnl9x5A5kTgBgCpZHV71K5eOodVcnSOJh3npvslDty021rlypXljz/+MF+49UuhztuUuDCJazc5nddLC5Lo9q7ZDG+Bm2ZYdLzdhAkTTAGSmTNnmvnFMisNaD0Fva7rlQavWiDD03hA7brqi87BZUfFixdPNrO2e/duE8S7dqF1pd1prTkEXYMzbWvadff33383YzJTQit66jF//fVXZ4AZaAYwvTKq1nuvxV5C8b0HkPkwxg0AUkG/9FpfWrVM+/3335/szZoqQLuvearMaAVcOjHy7NmzzTgirdhnTTScmBXQaZdKKzunXcG0cp43OtGw1Y1y6NCh5nVkVjq5szWOKjG9/tYkzVrEI3EXOi3coTR49nYMDVw08PDFutbanTW1vJ2Hp+2soF+DG29VFHU7b2Mu1YwZM5zP2axZM7d1VhXI7du3mwI9KaFVWJW2wcTTDfgjLa+tp/dei4DoDymeaDdUnWQcAIKBwA0AUkG/8FpfarWinz+s7bQLlgZmiblmykaPHu3sEumt3LoVuOmUAFrIRFWvXt2temRipUqVco6l0zF6egxrX2/0dSaXfbAjrXw4ZsyYJMs1IO7Ro4f58q08ZR0bNWrkDKI/+OCDJOv1S3337t2TPQer8IZ2V0wtbR86pYR13t7o3GlaVVJpEO+rcuRLL73kMTjZtm2b/O9//3O+Bp0fzpWOa8uTJ49z2gANYn1ZuHBhkiD3iSeecI717NWrl88KmJqp9nZttSKov0GtP6z3Xr3xxhtefwBJ72kxAMBCV0kASGU2x+ri6Ks7nistMqJfNnVMj+4/ZMgQt/Wux7HK03vqJmmxMmva7TG5bpKuNGjRL536BV8DE33epk2bmgyIjo/S8UdagELLt2vmRsfyWV/MNTNlhyIT/tBMpV5jDeAeeeQR815pQKPdWrWoi9LXrFU/E9MupTpnml5bDdD++usvuf32200GSyc512NoMFGjRg2fhV70PdeMkhax0dL5+p5ZmSKdi8+fyo6uwZSel05CrkVItG1oIRKdTkLHTmrJfv1BwMoE6/v0+uuvez1ehQoVTHdIrUCq10kzj9a8dq+++qoJ7K2JshO/51ptUrva6o8R2p71Wnfp0kXuvPNOM0eelvvX66PXWacD0Pb85ZdfupXjL1asmJnIW9+bw4cPmx8ptG3qMXSdviYN5vTaaXCZOPjVa6sTteu+GkjptdFrYXXFLF26tKSEvqc695wW+3n33XdNoKxVVfXY2n50kmzNmuvzu86jCADpxgEASJE1a9boz/vm1qtXr4D27dOnj3PfDRs2JFlfqlQp53q9LVy40OfxqlSp4rb9p59+6ve5LFiwwFGuXDm3/b3dIiIiHHfccYdjy5YtjpSyjtWoUSOf64cPH+7zOLq/t+NMnz7deZyNGzc6atSo4fU11a9f33Hq1Cmvz/PRRx85IiMjPe6bM2dOx8cff+zo3Lmz+bt06dIej7Fp0yZH9uzZPR5D9w3EjTfe6Nd7pbeoqCjHN998k+z1++qrrxy5cuXyeIwsWbI4Xn/9dZ/n9MUXXziuvvrqZM9Hj7Vs2TKPx5gxY4a5nr7293R9T58+7bX9Jt7e37Zl2bZtm6No0aJez2fQoEFubW337t1JjqHn4M/77M+56fGt7fR5AYQXukoCQAq5jguyxq35y3V7T+OLXDNmrhNte+OapdNskL/ZP9W2bVuTydCMmmaVqlatarrVZc2a1WSDdKyPjmXSCZ412/H111+nqIJgRtE5uzQjoudvdSHV7n06XYJmkVauXOmzW+m9995r9tfrpJNRa9ZJ50jT7IsWNvGni6w+r2ZuHnjgAdNN1Vu3V39o5lAzoK+99prpuqgVM/X8tZ3o69Lsm2biNEuk76tmCJNz1113yYYNG0x3R81Q6WvULKC2U+1C+9RTT/ncXzOWmlHUzJ5mbTUTp9kuLZ6j7UezmZqd1CInOuecJ3o9tX09++yzctNNN5l5BDWzq++fZgOHDRsm33zzTZL99DXr+6PdNq+99to0rZCqk8DrtdZutNZ10TagczVqt09PXXABIL1EaPSWbkcHACADaEENDUKUBhTeCnOEM+0SqUGrjuXSbpEAAHsj4wYAAAAANkfgBgAAAAA2R+AGAAAAADZH4AYAAAAANkfgBgAAAAA2R1VJAAAAALC5rBl9AuHo8uXLcuDAATPvjs63BAAAACA8ORwOOX36tBQvXtzMyekNgVsG0KBNJ28FAAAAALVv3z6Jjo4WbwjcMoBm2qw3J1++fBl9OvAgPj5eFi9eLC1atJBs2bJl9OkgBNBmECjaDAJFm0GgaDOh4dSpUyapY8UI3hC4ZQCre6QGbQRu9v2gy5Url3l/+KCDP2gzCBRtBoGizSBQtJnQktwQKqpKAgAAAIDNEbgBAAAAgM0RuAEAAACAzRG4AQAAAIDNUZwEAAAAyGTzgiUkJMiFCxcka9asEhcXZ/5GcGlBmMjIyDQ7HoEbAAAAkEkCthMnTsiRI0dMoKZ/FytWzExBlVzFQqSPAgUKmPcgLa4/gRsAAMGWkCARK1dKiVWrJCJ3bpEmTUTS8FdZAOHp4MGDJnCzppzKkiWLnD17VvLkyWMeI3g0aD537pwcPnzY/B0VFZXqYxK4AQAQTAsWiPTrJ1ljYqSW/j12rEh0tMiECSLt2mX02QEIUZphO3nypBQpUkQKFy5sll2+fNnM5ZYjRw4CtwyQM2dOc6/BW9GiRVPdbZJ3EACAYAZtHTqIxMS4L9+//8pyXQ8AKaABmmZ5cmsWH7ahE6Bb709qEbgBABAMWhigXz/tP5N0nbWsf/8r2wFACjGWLfO+HwRuAAAEw+rVSTNtiYO3ffuubAcAQCIEbgAABENsbNpuBwAIKwRuAAAEg78VxdKg8hgAIG3s2bPHdHecMWNGRp8KgRsAAEHRoMGV6pHexjvo8pIlr2wHADaiQ29XrBD54IMr9xkxFHfGjBkmgLJuOrF4iRIlpEuXLrJfCzyFAaYDAAAgGLQMtJb81+qRGqS5Fimxgrnx45nPDYAdZzBxG6KbkTOYjBw5UsqWLStxcXHy448/moBuzZo18ttvv5lpDzIzMm4AAASLfsuZP1+keHH35fotSJczjxsAG7HjDCZ33nmndOrUSR599FGZOnWqDBo0SHbu3ClffPGFZHYEbgAABJMGZ1u3Ov+89OWXIrt3E7QBsJVQmcGkwb/dyzV4s2zfvl06dOggV199tcnC1apVK0lgd+zYMRP0VatWTfLkySP58uUzQeEvv/widkXgBgBAsLl0h3TceivdIwHYTqjMYLJnzx5zX7BgQXP/+++/S7169WTbtm3yzDPPyBtvvGEmJW/Tpo18+umnzv127doln332mbRq1UrGjh0rgwcPli1btkijRo3kwIEDYkeMcQMAAAAQEjOYnDx5Uo4ePWrGuK1bt05GjBgh2bNnNwGY6tevn5QqVUp++ukns1z16dNHbr31VhkyZIi0bdvWLNNM244dOyRLlv/yWA8//LBUqVJF3nvvPXn++efFbsi4AQAAAAiJGUyaNWsmRYoUkZIlS5rukJpN026Q0dHRpvvjsmXLpGPHjnL69GkT4Ontn3/+kdtvv13+/PNPZwVKDeqsoC0hIcFso10mK1euLBs3bhQ7IuMGAAAAwOMMJhrneBrnpsVwdX2wZzB5++23pVKlSibzNm3aNFm1apUzs/bXX3+Jw+Ew2TJvGbPDhw+baQQuX74sEyZMkEmTJsnu3btN8GYpVKiQ2BGBGwAAAICQmMGkTp06ptiI0nFr2gXywQcflD/++MMEY0qLjmiGzZMKFSqY+1GjRpngrlu3bvLSSy+ZQiaagevfv7/zOHZD4AYAAADA6wwmffteybxZNNOmQVtGF8ONjIyUV155RZo0aSJvvfWWCcJUtmzZTJdKX+bPn2/20/Fsrk6cOCGFCxcWO2KMGwAAAAB/ZjCRRYvsNYNJ48aNTRZu/PjxpqS//j1lyhSJ9VA15ciRI25Bn3ardPXxxx87x8DZERk3AAAAAF65dods2NB+M5gMHjxY7r33XpkxY4YZA6fdJ7VqZI8ePaRcuXJy6NAhWbt2rcTExDjnadMqlCNHjpSuXbvKLbfcYqYCmDNnjtnergjcAAAAAISsdu3aSfny5eX11183wdqGDRvMNAEayGm1yKJFi0qNGjXkhRdecO4zbNgwOXv2rMydO1c+/PBDqVmzpixcuNDM/WZXBG4AAAAAvMqd23NlyWDq0qWLuXmiRUW0oqRFs2YzZ870eTytRKmBnt5crVixwu3vMmXKJOlSmVEY4wYAAAAANkfgBgAAAAA2R+AGAAAAADZH4AYAAAAANkfgBgAAAAA2R+AGAAAAADYXdoHbhQsXZMiQIVK8eHHJmTOn1K1bV5YsWRLwcZo3by4RERHyxBNPpMt5AgAAAEDYBm46/8PYsWPloYcekgkTJkhkZKS0bNlS1qxZ4/cxFixYYGZfBwAAAIBgCKvAbf369TJv3jx55ZVXZMyYMdKzZ09ZtmyZlC5dWp5++mm/jhEXFydPPfWUydoBAAAAQDCEVeA2f/58k2HTgM2SI0cO6d69u8mg7du3L9ljjB49Wi5fviyDBg1K57MFAAAAgDAM3DZt2iSVKlWSfPnyuS2vU6eOud+8ebPP/ffu3SuvvvqqvPbaa2Z8HAAAAAAEQ1YJI7GxsRIVFZVkubXswIEDPvfXLpI1atSQ+++/P+CCKHqznDp1ytzHx8ebG+zHel94f+Av2gwCEh8v2ZwP483fQHL4nIEv2i4cDofpGaY3pX9b99YyBJded73++v5ozz9P/P03HVaB2/nz5yV79uxJlmt3SWu9N8uXL5dPPvlE1q1bF/Dz6pi6ESNGJFm+ePFiyZUrV8DHQ/CkpOIowhttBv6IjIuTVv8+1rHWCf/+fwjwB58z8CRr1qxSrFgxOXPmjFy8eNFt3enTp1N38IQEybp2rUQcPCiOYsXk0s03i3gJQuBO3wuNMVatWiWXLl0ST86dOyf+CKvATbs3uma+XAuOWOs90Yvct29fefjhh6V27doBP+/QoUNl4MCBbhm3kiVLSosWLZJ024Q96C8f+j9GnfYhWzbrd3HAO9oMAnL2rPNh06ZNJVuBAhl6OggNfM7AF/0+q/Ua8uTJ40xKaKZHg7a8efOaaaxSZMECiRgwQCJiYpyLHNHR4hg3TqRdOwmWGTNmmLoUmkSpVauWhNL7ojFGw4YNne9LYlZvvOSEVeCmXSL379/vsQul0rndPJk1a5b88ccfMmXKFNmzZ4/bOv3HoMuKFi3qNXumWT5PmT790OWD1954jxAo2gz84tJGaDMIFG0GniQkJJjgLEuWLOamrO6R1vKALVgg0rGjRoBuiyP275cIXT5/ftCCtyz/nr/r6wsFeq56/X39u/X333PovOo0UL16ddmxY0eSqNbq/qjrvRUl0V+56tevL2XLlnXerKBOH2u3RwAAACBTSEgQ6dcvSdBmWMv697+yHYIirAK3Dh06mF8j3nnnHecy7To5ffp0qVu3rum+aAVq27dvd26jxUg+/fTTJDelk3frY90fAAAAyBRWrxZx6R7pMXjTqbR0uwzQpUsX0y1Uv7e3atXKPC5RooS8/fbbZv2WLVtMV/TcuXObOZvnzp3rtv+xY8fM9F7VqlUz++rwpTvvvFN++eWXJM/1999/yz333GOOpb3sBgwYIN9++63JpK1YsSJorzmsukpqcHXvvfeaMWeHDx+WChUqyMyZM01Xx/fee8+53SOPPCIrV650VuKpUqWKuXmi2bY2bdoE7TUAAAAA6e7foURptl06SEhIMMGWjh/TuZbnzJkjTzzxhAmwnn32WXnooYekXbt2MnnyZPP9/uabb3b2mtu1a5d89tlnJjbQZYcOHTLDoho1aiRbt251DqE6e/asCQB1aFW/fv1MARgNArVwYbCFVeBmdW18/vnn5f3335fjx4/LDTfcIF999ZV5wwEAAACY4hBpu106Ff7o1KmTScqoBx980ARc3bp1kw8++EDuu+8+s1wL+mgSRhM2L774olmmmTYdQuU6Xk4LEep2mtDReEFpMGcFea1btzbLevXqZaYIC7aw6iqptJrLmDFjTNSsb/b69evl9ttvd9tGU55Wts0X3eatt95Kx7MFAAAAMkCDBiLR0VrZxPN6Xa7DjHS7DPToo486HxcoUEAqV65sMm4dtXjKv3SZrtMAzKKFA62gTTN3//zzj+kyqdtu3LjRud0333xjumBqV0nXeKJHjx4SbGEXuAEAAABIhs7TNmHClceJgzfr7/HjM3Q+txw5ckiRIkXcluXPn1+io6OTTH+gy7W3nUUrbo4bN04qVqxogrjChQubY/36669y8uRJt/Ft5cuXT3I8HXIVbARuAAAAAJLSUv9a8j/xlFmaiQviVADeRHoJGr0td+1RN2rUKDPPsg6Xmj17tik2ovMkXnfddc5pFOwm7Ma4AQAAAPCTBmfNmmnK6srfixaJtGiRoZm2tDB//nxp0qSJW4FCdeLECZN9s2hFSi1WokGfa9btr7/+kmAj4wYAAADAO9cgTQv6hXjQZmXlEte0+Pjjj2X//v1uy7QWhi774osvnMu0Tsa7774rwUbGDQAAAEBYadWqlYwcOVK6du0qt9xyi5n3TacTKFeunNt2WkFSixE+8MADZjqAqKgos52Or1OJx76lJwI3AAAAAN7lzn1lwu1MZNiwYWaONp2T7cMPP5SaNWvKwoUL5ZlnnnHbTitNLlu2TJ588kmZMGGC+VvnhNNgr3379s4ALhgI3AAAAADYWpcuXczNMmPGDHNLTKf18mTPnj1uf2slyddff93ckttfJ+jWeZ9djdeKmqZOS7QEC2PcAAAAAMCL8+fPu/2tY9x0Ym6dSkDneAsWMm4AAAAA4EW7du2kVKlSUr16dTPHm04fsH37djPWLZgI3AAAAADAC60sOXXqVBOoJSQkSNWqVWXevHly3333STARuAEAAACAF/379ze3jMYYNwAAAACwOQI3AAAAIJNIPKk0Ms/7QeAGAAAAhLjIyEhzHx8fn9GnAheXLl0y91mzpn6EGoEbAAAAEOKyZctm5ibTqodk3ezj1KlTJqi2AuvUoDgJAAAAkAkULlxY9u/fLzExMZI/f34TLFy8eNHMO5YlC/maYNLg+ezZsyZwi4qKkoiIiFQfk8ANAAAAyATy5ctn7o8ePWoCOA0edPLonDlzpknggMDoNS9QoIAJotMCgRsAAACQiYI3velYtwsXLsjKlSulYcOGpislgkuveVp0kbQQuAEAAACZjBWoaXGMHDlyELhlAnR2BQAAAACbI3ADAAAAAJsjcAMAAAAAmyNwAwAAAACbI3ADAAAAAJsjcAMAAAAAmyNwAwAAAACbI3ADAAAAAJsjcAMAAAAAmyNwAwAAAACbI3ADAAAAAJsjcAMAAAAAmyNwAwAAAACbI3ADAAAAAJsjcAMAAAAAmyNwAwAAAACbI3ADAAAAAJsjcAMAAAAAm8uaVgf6888/ZdasWbJ27Vo5ePCgnD9/Xr799lupUKGCc5vffvtN9u7dK7lz55ZGjRql1VMDAAAAQKaW6sDt8uXL8vTTT8uECRPMY4fDYZZHRETIxYsX3bbVoK1Vq1aSNWtW2b17t5QoUSK1Tw8AAAAAmV6qu0r26tVLxo0bJwkJCVK8eHHp0KGD121btmwpZcuWNdvOnz8/tU8NAAAAAGEhVYHb0qVL5b333jOPhw0bJnv27JGPPvrI5z733nuvycotW7YsNU8NAAAAAGEjVV0l33nnHWcm7eWXX/Zrnzp16pj733//PTVPDQAAAABhI1UZNy1EomPZunfv7vc+0dHR5l4LmGSECxcuyJAhQ0y3zpw5c0rdunVlyZIlye63YMECue+++6RcuXKSK1cuqVy5sjz11FNy4sSJoJw3AAAAgPCVqozb4cOHzX2ZMmX83idbtmzm/tKlS5IRunTpYsbX9e/fXypWrCgzZswwGcPly5fLrbfe6nW/nj17mmCvU6dOUqpUKdmyZYu89dZbsmjRItm4caMJAgEAQMolJIisXi0SGysSFSXSoIFIZGRGnxUAZILATcv6a8bpyJEjfu8TExNj7q+++moJtvXr18u8efNkzJgxMmjQILPskUcekeuvv95Uxvzhhx+87qvBXuPGjd2W3XTTTdK5c2eZM2eOPProo+l+/gAAZFYLFoj066ffE/5bpp10JkwQadcuI88MADJBV0ntNqi2bt3q9z5ff/21ub/uuusk2DT4ioyMNNkzS44cOUxXT+32uW/fPq/7Jg7aVNu2bc39tm3b0umMAQAIj6BNi1K7Bm1q//4ry3U9AIS7VAVuLVq0MBUi3377bTOHW3I0wNOuiTouTrsnBtumTZukUqVKki9fPo8FUzZv3hzQ8axxeoULF07DswQAILy6R2qm7d9pYN1Yy/r3v7IdAISzVHWV7Nu3r7z55puyc+dOeeyxx2TSpElmcm1PtABI165dJS4uTgoVKiQ9evSQYIuNjZUo7TSfiLXswIEDAR3vtddeMxk8X3PXWQVR9GY5deqUuY+Pjzc32I/1vvD+wF+0GQQkPl6ujPj+t82EcbtZuTJCYmK8fx3R4E07xCxffkkaNfIQ3YURPmcQKNpMaPD3/UlV4HbNNdfI5MmTzTgxnc/t22+/lbvuusu5fsKECSYj9/3338v27dvN4yxZspisW548eSTYzp8/L9mzZ0+yXLtLWuv9NXfuXPOadWycFjnx5ZVXXpERI0YkWb548WJToRL25U/FUcAVbQb+iIyLk1b/PtZ5TRP+/f9QOFq1qoSI1Ep2u6+/3ixnz+4PyjnZHZ8zCBRtxt7OnTvn13YRDo2mUkkn3e7Vq5ecPHnSdINMzHoKDdZmzpzpHBsWbFqERINNnTg8cRdOHXOnQai+juSsXr3adBNt1KiRfPXVV16zjL4ybiVLlpSjR48m6bYJ+/zyoR9yzZs3d1ZCBXyhzSAgZ89KtoIFzcNzhw9LtgIFJJwzbs2bJ/878pIlZNz4nEGgaDOhQWMDHXqlsZSv2CBVGTdLx44d5bbbbjNdJb/88kszVsy13L8GRffcc4/069dPihYtKhlFu0Tu15HOHrpQKi33n5xffvnFvBYNArXYSXJBm9Isn6dMn/4D4h+RvfEeIVC0GfjFpY2Ee5tp0uRK9Uj937Onn5L192Bd36RJVqYG+Fe4txkEjjZjb/6+N2kSuCkdt/b888+bmxYqOXbsmCQkJJiy/3ZpKNWrVzfztWlU6xrNrlu3zrneFx3Ld8cdd5jgU+dvy4jungAAZCYajGnJfx0urkGaa/BmdeIZP5753AAgS7ocNEsWk+7Tbol2CdqUFhHRYPKdd95xLtMujNOnT5e6deua7otq7969Zkxe4gqS2j1SX5uO5StSpEjQzx8AgMxI52mbP197vrgv10ybLmceNwBIw4xbKNDg7N5775WhQ4fK4cOHpUKFCmbM3Z49e0yhEYsWW1m5cqVzbJ7STNuuXbtMMZI1a9aYm0UDVO07DAAAUkaDs2bNRPLnv/L3okU67RCZNgAIy8BNzZo1y3TnfP/99+X48eNyww03mAIjDRs2THZsmxo9enSSdVqkhMANAIDUcQ3S9H/LBG0AEGDgVq5cOUlrWn1Sx4wFm5b+HzNmjLl5s2LFiiTL0qD4JgAAAACkX+CmXQn9YU0FkDjI8bTc07QBAAAAAIAUBm6dO3f2uV7L/2tXQg3MChQoIDVq1DDjvtShQ4fMeu2WqMHajTfeaG4AAAAAgDQM3LTqojfTpk2TuXPnSnR0tLzxxhtmcu3Ec5tpJccFCxbI4MGDzWTXjz/+uHTv3t3PUwQAAACA8Jaq6QA2bNggjz32mCn9/+OPP5qKjZ4mpI6MjDTr1q5da+Z169Onj9kXAAAAAJDOgdu4ceNMNm3YsGFSPPHkKx5ERUWZbePj42Xs2LGpeWoAAAAACBupCtxWr17tnB/NX/Xq1TP3rvOgAQAAAADSKXA7cuSIub9w4YLf+1jbWvsCAAAAANIxcCtSpIi5//rrr/3eZ9GiReZex8UBAAAAANI5cGvatKmZAkDHq33//ffJbv/DDz+YcXE6LcBtt92WmqcGAAAAgLCRqsDtmWeekezZs5vujxqI9e/f38zZ5jrRtj7WZQMGDDCBXlxcnFx11VVmXwAAAABAGs3j5k2VKlVk5syZ0qlTJ7l48aJMnDjR3DQw07L/mln7559/zDoriNPpAnReON0XAAAAAJDOGTfVsWNH003ypptuMoGZ3jQDFxsbKwcOHDCPreU1a9Y01STvv//+1D4tAAAAAISNVGXcLLVr15affvrJTKr93XffyZYtW+TYsWNmXcGCBaVatWrSrFkzsx0AAAAAIAMCN0utWrXMDQAAAABgo66SAAAAAIAQyrgBAOAqIUFk9WqR2FiRqCiRBg1EIiMz+qwAAAizwG3VqlWpevKGDRuman8AgH0tWCDSr59ITMx/y6KjRSZMEGnXLiPPDACAMAvcGjdubEr+p4Tud+nSpdQ8PQDAxkFbhw46DYz78v37ryyfP5/gDQCAoI5xs0r9p+QGAMic3SM10+bpY95a1r//le0AAEAQMm7Lly9PdpuzZ8/Kjh07ZN68ebJ+/XqpX7++jBgxQiIZ5AAAmZKOaXPtHukpeNu378p2jRsH88wAAAjTwK1Ro0Z+bdeyZUvp37+/jBkzRoYMGSLTpk2T2bNnp+apAQA2pYVI0nI7AAAQ5OkABg8eLO3atZMPPvjAZOAAAJmPVo9My+0AAEAGzOP2yCOPmPFt77zzTrCfGgAQBFryX6tHeqtdpctLlryyHQAAsGngVqpUKXO/ZcuWYD81ACAIdAizlvxXiYM36+/x45nPDQAAWwduhw4dchYtAQBkTlrqX0v+Fy/uvlwzcUwFAABAkIuTpMTbb7/tlnkDAGROGpw1ayaSP/+VvxctEmnRgkwbAAC2zbgdP35clixZYqpLfvXVV2bybS1SAgDI3FyDtIYNCdoAAMiQjFtK52KrWLGimRYAAAAAAJDOGTetDhnITQO9Bx54QFatWiX5rb4zAAAAAID0y7gNHz482W2yZMkiefPmlbJly8ott9wiRYoUSc1TAgAAAEDYSffADQAAAAAQYtMBAAAAAACCmHEbOXKkue/Tp48ULlzY7wqTEydONI9feOGF1Dw9AAAAAISFVAVuL774oint36FDB78Dt2PHjjn3I3ADAAAAgOTRVRIAAAAAbC7ogVt8fLy5z5YtW7CfGgAAAABCUtADt82bN5t7pgUAAAAAgHQY4zZr1iyPyz///HPZsGGDz30vXLggO3fulGnTppnxbbVr1w7kqQEAAAAgbAUUuHXp0sUEXa4cDoc899xzfh9Dt9dJufv16xfIUwMAAABA2Aq4q6QGXtbN0zJfNx3XVr9+ffniiy+kUaNGaf1aAAAAACBTCijjtnv3budjDcTKlStnMnDffvutVKxY0et+uk2OHDmkUKFCEhkZmbozBgAAAIAwE1DgVrp0aY/Lixcv7nUdAAAAACADq0pevnxZEhISpGrVqhIqtEjKkCFDTLCZM2dOqVu3rixZssSvfffv3y8dO3aUAgUKSL58+aR169aya9eudD9nAAAAAOEtoIxbZqAFVubPny/9+/c33TtnzJghLVu2lOXLl8utt97qdb8zZ85IkyZN5OTJkzJs2DAzXm/cuHFmrJ5OcaDdQENNwsUE2TJptZzbGSu5ykdJtT4NJPIqurLqdfl14io5vew3+fWvPFL9ycZcl3/RZjyjzQBIb3zOeMb/l7yjzWTCNuMII+vWrdOKKo4xY8Y4l50/f95Rvnx5x8033+xz39dee83su379eueybdu2OSIjIx1Dhw4N6DxOnjxpjqX3GWXt4E8c+yOjtcSM86Z/6/JwxnXxjmvjGdfFtzNn/rs0+hhJL8zF48cz+mxsg/biGZ8znnFdvOPahNZ18Tc2iND/JBfcdevWzVlk5L333kuyPCUSHysYnn76aRk7dqwcO3bMdHW0vPLKKyaLtnfvXilZsqTHfevUqWPu169f77b89ttvN/PT/fXXX36fx6lTpyR//vwme+d6HsHy49MLpM6YDto+3PrKXpYrUz2sHzxf6o1uJ+GG6+Id18Yzrkvyzp4VyZPnyuMzZ0Ry587oM7LfhYk/flyyFSiQ0WdkC7SXpPic8Yzr4h3XJvSui7+xgV+Bm867Zs3fpmPaPC0PhD6l7ud6rGBo3ry5Gae2detWt+VLly6VZs2amWkK7r77bo9j+XLlymUC1UmTJrmte/755+Xll182Fzxv3ry2D9w0PXwoVxkplhDjcYCjNt7YyGgpdm536KSN0wDXxTuujWdcF//wRdwLAjePaC/u+JzxjOviHdcmNK+Lv7GBX2PcSpUq5TFA87bcrmJjYyUqKirJcmvZgQMHPO6nGTotapLcvpUrV/a4v+6rN9c3R8XHx5tbMGlf55sSYryuzyIOKZGwT36euEJu6NtQwgXXxTuujWdcF/9c+YjL5vKZl9FnZBPx8f9elSvXhQtzBe3FHZ8znnFdvOPahOZ18Tce8Ctw27NnT0DL7er8+fOSPXv2JMt1jjlrvbf9VEr2tbpijhgxIsnyxYsXm0xeMOkA1Zv82G7bsh8lpsIZCRdcF++4Np5xXfwTGRcnDrnfPP7q23mS8O9nZriLi4uU++VKh5d5y76SHDmC2wPFrmgv7vic8Yzr4h3XJjSvy7lz5/zaLqyqSmr5f9fMlyUuLs653tt+KiX7qqFDh8rAgQPdMm46lq5FixZB7yqpVYVkUfLbXdu0ntzQMox+ieG6eMW18YzrEkDfN5cxwWHf9y3pZZGmTZtKgQJW/i3M0V7c8DnjGdfFO65NaF4Xqzdecvwa45ZZMMbNtY/vfpMWtlsf34zCdfGOa+MZ18VPDFpK9rIcPx5P4Gahvbjhc8Yzrot3XJvQvC7+xgapmoA71FSvXl127NiRJKpdt26dc70nWoSlWrVqsmHDhiTrdN9y5cr5HbRlNG2MewdOcKuiY7H+3jdwfFj9Y1ZcF++4Np5xXQCkNz5nPOO6eMe1yeTXxRFGfvzxxyTzuMXFxTkqVKjgqFu3rnPZ33//beZoc/Xqq6+afX/66Sfnsu3bt5t53IYMGZIp5nGLiSyZ4fNYZDSui3dcG8+4LslgYq5kL8vx4xcz+nTsg/biEZ8znnFdvOPahNZ1SdN53DSjlNa0GqXOfxZsHTt2lE8//VQGDBggFSpUkJkzZ5q52bS7ZMOGV/q0Nm7cWFauXGmmLbCcPn1aatSoYe4HDRok2bJlM3PC6ZQGmzdvliJFioTMPG6ZYub4dL4umyeuMANUta9z9Scbc13+RZvxjDbjA13fPKKrpBe0F6/4nPGM/y95R5sJnTaT5vO4pbWMmMfNKiai49Jmz54tx48flxtuuEFeeumlK4Og/+UpcFMxMTEm4NNqkDruTbcbN26cCQADYZfADb7Lsi5atEhatmxpgnQgObQZL/gi7hGBmxe0F5/4nEGgaDOhIU3ncevcubNkFlq+f8yYMebmzYoVKzwuj46Olo8//jgdzw4AAAAAUhi4TZ8+3Z/NAAAAAADpIKyqSgIAAABAKCJwAwAAAIDM0FUyEFrQY9euXXLs2DHz99VXX22qUmoxEgAAAABABgZu33zzjUyaNMkU9jirVaFc5MqVy1Rg7NOnj9x5551p9ZQAAAAAEBZS3VXy3Llz0r59e7nrrrtk4cKFcubMGZN1c71pIKelSFu1aiVt27ZNEtgBAAAAANIp46Zzmem8EKtXrzYBms4P0aJFC6lTp45cc801ZptDhw7JTz/9ZOY+u3jxonzxxRdmH83M0X0SAAAAANI5cJsyZYqsWrXKBGA6gfXUqVOlRIkSHrfdv3+/9OjRw3SpXLNmjUyePFl69+6dmqcHAAAAgLCQqq6SM2fONPe1a9c23SS9BW1K13355ZcmG6fZOWtfAAAAAEA6Bm7btm0z2bYBAwZIlizJHyoyMlIGDhzo3BcAAAAAkM6BmzVGrVKlSn7vU7FiRbd9AQAAAADpGLiVL1/e3B8+fNjvfaxtrX0BAAAAAOkYuD3wwANmvNqsWbP83ke31Wzbfffdl5qnBgAAAICwkarArW/fvlKzZk2ZN2+ejB49Otntx4wZIx988IHUqFFD+vfvn5qnBgAAAICwkarpAA4ePGimAOjVq5cMHTrUBGWdO3c2VSaLFi1qMmvWPG7vv/++bN682ax75513zL7elCpVKjWnBQAAAACZSqoCtzJlyrgVGfn111/lqaee8rnPhg0bTJbOGz3epUuXUnNaAAAgFCUk/Pd41SqRFi20JHVGnhEAZI6ukkrHuKX1DQAAhJkFC0SqVv3v75Yt9RfiK8sBAKnLuE2fPj3tzgQAAIQnDc46dNBfg92X799/Zfn8+SLt2mXU2QFA6AduOp4NAAAgVd0j+/VLGrQpXaZDMrSgWevWdJsEENZS3VUSAAAgxVavFomJ8b5eg7d9+65sBwBhjMANAABknNjYtN0OADIpAjcAAJBxoqLSdjsAyKRSNcbNouX7Fy5cKKtXr5Zdu3bJ6dOnJcG1pK+Xsv9Lly5Ni6cHAAChqkEDkejoK4VIPI1z0zFuul63A4AwlurAbeXKldKlSxfZu3evc5mvkv4asOl61/nfAABAmNKCIxMmXKkeqd8NXL9DWN8Vxo+nMAmAsJeqwG3z5s1yxx13yMWLF00wliNHDqlYsaIUKFBAsmShFyYAAPCDlvrXkv9aXdK1UIlm2jRoYyoAAEhd4Pbiiy/KhQsXJHv27DJ27Fjp2rWrCd4AAAACosGZlvzX6pFaiETHtGn3SDJtAJD6wG3NmjWmy+Ozzz4rvXv3Ts2hAABAuNMgrXHjjD4LALClVPVnjIuLM/faXRIAAAAAYMPArUyZMuY+Pj4+rc4HAAAAAJCWgVubNm3M/apVq1JzGAAAAABAegVu/fr1k6ioKHn99ddlz549qTkUAAAAACA9ArciRYrIokWLJGfOnFK3bl1599135eTJk6k5JAAAAAAgrSfgvuGGG0xXSQ3cHnvsMVNdsnDhwpIrVy6f+2k1yp07d6b26QEAAAAg00t14PbJJ59I9+7d5fTp02YSbr0dPnw42f00cAMAAAAApHPgtnbtWrn//vslISHB/F26dGmTgStQoIBkyZKqXpgAAAAAgLQI3F5++WUTtOXPn1/mzJkjLVu2TM3hAAAAAAAepCottmHDBtPlccSIEQRtAAAAAGDHwO3cuXPm/tZbb02r8wEAAAAApGXgVrZsWbcADgAAAABgs8CtXbt2porkt99+m3ZnBAAAAABIu8DtqaeekooVK8r48ePNeDcAAAAAgM0Ct7x588rSpUvl+uuvl4YNG8qzzz4rv/76q8TFxaXdGQIAAABAmEtV4BYZGWnmblu/fr0J1l599VWpUaOG5M6d26zzdcuaNdVzfwfsxIkT0rNnTylSpIg5xyZNmsjGjRuT3e/y5csyY8YMueeee6RkyZJmXw1WdToEglQAAAAAtg7cdHybdUv8tz+3YNLg66677pK5c+fKE088IaNHj5bDhw9L48aN5c8///S5rxZf6dq1qxw5ckQee+wx0zW0Tp06Mnz4cLnzzjuD/loAIGQkJPz3eNUq978BAIDfUpX20sAlVMyfP19++OEH+fjjj6VDhw5mWceOHaVSpUrmdWhA581VV10l33//vdxyyy3OZT169JAyZcqYfbW7aLNmzYLyOgAgZCxYINK3739/63yf0dEiEyZodauMPDMAAEJOWAVu11xzjamEadEukxq8zZ49Wy5cuCDZs2f3Gri5Bm2Wtm3bmmuwbds2AjcASBy06Y9kiXsk7N9/Zfn8+QRvAAAEq6tkSm3atEkGDBgQ9OesWbOmZMni/pK1y6N2hdyxY0fAxzx48KC5L1y4cJqdJwCEPO0O2a9f0qBNWcv696fbJAAAAQhahZDY2FiT2Xr//ffl999/N8vGjRsnwXx+rXyZWFRUlLk/cOCAVKtWLaBj6ji5fPnymXFuvmg2T2+WU6dOmfv4+Hhzg/1Y7wvvD/xFm/lPxMqVkjUmxvsGGrzt2yeXli8XR6NGEo6uNJNsLv8vyOgzQijgcwaBos2EBn/fn3QN3M6fPy8LFiyQWbNmybJly0yBEKXFPCIiIlJ8XD3OxYsX/dpWuz/qc+m5eOoKmSNHDue5BmLUqFHy3XffyaRJk6RAgQI+t33llVdkxIgRSZYvXrxYcuXKFdDzIriWLFmS0aeAEEObESmxapXU8mO7zV9/LfvPnpVwFBcXKSKtzGP9/2OOHGQf4T8+ZxAo2oy9ae+/DAvcli9fboI1DdrOnDljllmVFzXDpWPD2rdvn+Ljr1q1ypTy94eOP6tSpYrkzJnTLetlscr563p/ffjhh/Lcc89J9+7dpXfv3sluP3ToUBk4cKBbxk2nFWjRooXJ2MGev3zoh1zz5s0lW7Yrv4oDvtBm/hORO7fI2LHJblf9zjvlxjDNuLnGq02bNpUCBcK7zcA/fM4gULSZ0GD1xgta4LZ9+3YTrM2ZM0di/u0iYwVr0dHRJlDTao5a5CM12Talgdj06dP92tbqCqn32l0yMWtZ8eLF/TqeNv5HHnnETC0wefJkv/bRTJ+nbJ/+A+Ifkb3xHiFQtBkR0R/WtHqkFiLxNM5N/x8QHS1ZdbtIzTyFH9cmQptBoGgzCBRtxt78fW9SFbj9888/8sEHH5iA7eeff3YL1rT7oE54rUHa66+/bqo3ppVixYpJly5dAtqnevXqsnr1atPN0rVAybp160x3RZ0WIDm6rWYLa9WqJR999FGGTCIOALanwZiW/NfqkRqkuQZv1g9348eHbdAGAEBQqkpqylW7QLZp00ZKlCgh/fr1kw0bNpiATaNFXa6l9z1ltzKSZvsOHTpkzt1y9OhRM6/b3Xff7ZYR27lzp7kl7nKpWTadu+2rr74KqGslAIQdLfWvJf9LlHBfrpk4pgIAACBgfqeMfvzxR5NZ00zT8ePH3YqM1K9fXzp16mSyagULFhQ70sCtXr160rVrV9m6dasp4a+FRRISEpIUDrntttvM/Z49e8z96dOn5fbbbzeve/DgwbJw4UK37cuXLy8333xzEF8NAIQADc5atxZZvVr7pWufdZEGDci0AQCQnoGbNTbN6gpZuXJlE6w99NBDJgtld5GRkbJo0SITeL355pumimTt2rVlxowZ5rUk1yV037595vEzzzyTZH3nzp0J3ADAEw3SGjfO6LMAACDkBTxIK2/evCbw0WAl1Gg2cOrUqebmi5Vps2hgagWsAAAAAGDrMW4avGh5/27duknNmjVl7NixthvLBgAAAABhG7itWLHCVHLMkyePCeA2b95suh2WKlXKzA2h49+sOdsAAAAAABkQuDVs2FCmTZtmKjPqXG1arEPL6mtxj2XLlpmiH1qm/4EHHjBjyXQ5AAAAACADpgPIkSOHCc6+/vprU7Bj9OjRUq1aNZOFO3funKk6qeX1rYmvAQAAAABBDtxcaYZt0KBBptvkpk2bpH///lK0aFETxOkcaVqFUg0cONDM96YTYAMAAAAAghi4ubrxxhtNsZKYmBgzQbXO6aaTWmsQd+DAAXnrrbekcePGJhPXp08fWbp0aVo9NQAAAABkamkWuLnOl9ayZUuZN2+eHDx4UKZMmSK33nqrWadBnI6R02U6Rg4AAAAAkAGBm6t8+fJJjx49ZNWqVbJz504ZPny4lC9f3gRwzIsGAAAAADYI3BJPYq2B259//mnGumlABwAAAABIXlbJAPXr1zc3AAAAAICNMm4AAAAAgJQhcAMAAAAAmyNwAwAAAACbI3ADAAAAAJsjcAMAAAAAmyNwAwAAAACbI3ADAAAAAJsjcAMAAAAAmyNwAwAAAACbI3ADAAAAAJsjcAMAAAAAmyNwAwAAAACbI3ADAAAAAJsjcAMAAAAAmyNwAwAAAACbI3ADAAAAAJsjcAMAAAAAmyNwAwAAAACbI3ADAAAAAJsjcAMAAAAAmyNwAwAAAACbI3ADAAAAAJsjcAMAAAAAmyNwAwAAAACbI3ADAAAAAJsjcAMAAAAAmyNwAwAAAACbI3ADAAAAAJsjcAMAAAAAmyNwAwAAAACbI3ADAAAAAJsjcAMAAAAAmwurwO3EiRPSs2dPKVKkiOTOnVuaNGkiGzduDPg48fHxUrVqVYmIiJDXX389Xc4VAAAAAMIucLt8+bLcddddMnfuXHniiSdk9OjRcvjwYWncuLH8+eefAR1r4sSJsnfv3nQ7VwAAAAAIy8Bt/vz58sMPP8iMGTNk+PDh8vjjj8uKFSskMjLS/O0vDfZGjhwpQ4YMSdfzBQAAAICwDNyuueYaadeunXOZdpns2LGjfP7553LhwgW/jvPMM89I5cqVpVOnTul4tgAAAAAQhoHbpk2bpGbNmpIli/tLrlOnjpw7d0527NiR7DHWr18vM2fOlPHjx5vxbQAAAAAQDFklTMTGxkrDhg2TLI+KijL3Bw4ckGrVqnnd3+FwyJNPPin33Xef3HzzzbJnzx6/n1uzea4ZvVOnTjmLnOgN9mO9L7w/8BdtBoG40kyyufy/IKPPCKGAzxkEijYTGvx9f7KGaqGRixcv+rVt9uzZTXbs/Pnz5nFiOXLkMPe63hcdG7dlyxbT5TJQr7zyiowYMSLJ8sWLF0uuXLkCPh6CZ8mSJRl9CggxtBn4Iy4uUkRamcfLli2THDkSMvqUEEL4nEGgaDP2pr3/Mm3gtmrVKlPK3x/btm2TKlWqSM6cOT2OY4uLizP3ut4bzZANHTpUBg8eLCVLlgz4fHXfgQMHuh1Pj9OiRQvJly9fwMdDcH750A+55s2bS7ZsV34VB3yhzSAQZ8/+97hp06ZSoABtBsnjcwaBos2EBqs3XqYM3DQQmz59ul/bWl0h9V67SyZmLStevLjXY+hcbZrh026SVhfJmJgYc3/8+HGzTPe/6qqrPO6vmT5P2T79B8Q/InvjPUKgaDPwh2sToc0gULQZBIo2Y2/+vjchGbgVK1ZMunTpEtA+1atXl9WrV5tulq4FStatW2e6K1aqVMnrvjpnmwZo1113XZJ1o0aNMjctfqLPAQAAAABpLSQDt5To0KGDGZ+2YMEC81gdPXpUPv74Y7n77rvdMmI7d+409+XLlzf3ffv2lTZt2iSZz61Xr14mgGzdurWULVs2qK8HAAAAQPgIq8CtXr160rVrV9m6dasULlxYJk2aJAkJCUkKh9x2223m3uoWqdMI6M2VtU6zcImDOgAAAABIS2ETuEVGRsqiRYtMgZE333zTVJGsXbu2qRapE2oDAAAAgF2FTeCmChYsKFOnTjU3X/yZo61MmTJmbjcAAAAASG//VekAAAAAANgSgRsAAAAA2ByBGwAAAADYHIEbAAAAANgcgRsAAAAA2ByBGwAAAADYHIEbAAAAANgcgRsAAAAA2ByBGwAAAADYHIEbAAAAANgcgRsAAAAA2ByBGwAAAADYHIEbAAAAANgcgRsAAAAA2ByBGwAAAADYHIEbAABBlpDw3+M1ayLc/gYAwBMCNwAAgmjBApGqVf/7++67s0qZMleWAwDgDYEbAABBosFZhw4i+/e7L9e/dTnBGwDAGwI3AACCQLtD9usn4nAkXWct69/fvRslAAAWAjcAAIJg9WqRmBjv6zV427fvynYAACRG4AYAQBDExqbtdgCA8ELgBgBAEERFpe12AIDwQuAGAEAQNGggEh0tEhHheb0uL1nyynYAACRG4AYAQBBERopMmHDlceLgzfp7/Pgr2wEAkBiBGwAAQdKuncj8+SIlSrgv10ycLtf1AAB4ktXjUgAAkC40OGvdWmT58kvy9deb5c47q0uTJlnJtAEAfCJwAwAgyDRIa9TIIWfP7pdGjW4kaAMAJIuukgAAAABgcwRuAAAAAGBzBG4AAAAAYHMEbgAAAABgcwRuAAAAAGBzBG4AAAAAYHNMB5ABHA6HuT916lRGnwq8iI+Pl3Pnzpn3KFu2bBl9OggBtBkEijaDQNFmECjaTGiwYgIrRvCGwC0DnD592tyXLFkyo08FAAAAgE1ihPz583tdH+FILrRDmrt8+bIcOHBA8ubNKxERERl9OvDyy4cG1vv27ZN8+fJl9OkgBNBmECjaDAJFm0GgaDOhQcMxDdqKFy8uWbJ4H8lGxi0D6BsSHR2d0acBP+iHHB90CARtBoGizSBQtBkEijZjf74ybRaKkwAAAACAzRG4AQAAAIDNEbgBHmTPnl2GDx9u7gF/0GYQKNoMAkWbQaBoM5kLxUkAAAAAwObIuAEAAACAzRG4AQAAAIDNEbgBAAAAgM0RuAEAAACAzRG4IWz9/PPPcscdd5gJKfPmzSstWrSQzZs3e9z24sWLMmrUKKlSpYrkyJFDrrnmGrnrrrskJiYm6OcN+7eZy5cvy+TJk6V69eqSJ08e017uvPNO+eGHHzLkvJH+zpw5Yyq3afu4+uqrJSIiQmbMmOFx223btpnttG3otg8//LAcOXLEYzsaPXq0lC1b1nzu3HDDDfLBBx8E4dUgFNvM9u3b5emnnzafO/r5FBUVZf4/tWHDhiC9IoTi54yrOXPmmGPqPrAnAjeEpY0bN8qtt94qu3btMh+CL7zwgvz555/SqFEj+eOPP9y2jY+PN//z+9///mc+BCdNmmT+55g7d245efJkhr0G2LfNDB48WHr37i3VqlWTsWPHylNPPSU7duww265fvz7DXgPSz9GjR2XkyJHmy9KNN97odTv9sadhw4by119/mR+DBg0aJAsXLpTmzZubH4hcPfvsszJkyBCzbuLEiVKqVCl58MEHZd68eUF4RQi1NjN16lR59913pVatWvLGG2/IwIEDzWdTvXr15LvvvgvSq0Kofc64BoXWdxvYmE4HAISbli1bOgoWLOg4evSoc9mBAwccefLkcbRr185t29dee82RLVs2x7p16zLgTBFqbSY+Pt6RM2dOR4cOHdz237Vrl0694ujbt29QzxvBERcX54iNjTWPf/rpJ/NeT58+Pcl2vXv3Nu3j77//di5bsmSJ2X7KlCnOZTExMeZz5/HHH3cuu3z5sqNBgwaO6Ohox6VLl9L9NSG02syGDRscp0+fdttXP6+KFCniqF+/frq+FoRmm3E1ZMgQR+XKlR0PPfSQI3fu3On4KpAaZNwQllavXi3NmjWTQoUKOZdptxLNiHz11Vfmlyerq9KECROkbdu2UqdOHbl06ZKcO3cuA88cdm8zmqE9f/686R7pqmjRopIlSxbJmTNn0M8d6U8nty1WrFiy233yySfSqlUrkz2zaLuqVKmSfPTRR85ln3/+uWlLffr0cS7TLkyaydVf09euXZsOrwKh3GZuuummJF3c9POqQYMGJkOD0JfWbcaivUfGjRtneohkzZo1zc8baYfADWHpwoULHr9A58qVy3Qj+O2338zfW7dulQMHDpixJT179jRdCPSmfy9fvjwDzhx2bzO6Td26dc24Ax0vsHfvXvn111+lS5cuUrBgQdOOEJ72798vhw8fNl3ZEtMfhjZt2uT8Wx/rZ821116bZDtrPTK/QNqMNwcPHpTChQun0xkiM7SZ/v37S5MmTaRly5ZBOkukFGE1wlLlypXlxx9/lISEBImMjDTL9Mv3unXrnB981q9QSn+J0sG9U6ZMMX9rn3Ed7/bTTz+ZIA6Zn79tRs2ePVvuu+8+6dSpk3NZuXLl5Pvvvzf3CE+xsbHOTG1iuuzYsWPmBwL9VV231aytZtkSb6f0ByVkfoG0GW89BTQ7+9xzz6X7uSI024yOfVu8eLH88ssvQT9XBI6MG8KSdj/SYhHdu3c3WTXNljzyyCPODzzt6qas7m+nT5+WpUuXmqyJ3nSgt8PhMBXfEB78bTNKK7pdd9118vjjj8uCBQtMQRvtZtumTRszuBzhyWojnr5ka9VI12303p/tkLkF0mYS06yLFrPRqqRadALhIZA2oz8+DhgwQB577DGpWrVqkM8UKUHghrCkH1LDhg2TuXPnmi/YWv1v586dzv+5WeMErK5x9evXl5IlSzr3137jWmGQ8u7hw982owGajiXInz+/vPXWW2Z8pI5L0mBftx8zZkwGvxJkFOvzRH/tTiwuLs5tG733ZztkboG0GVdnz541Y5z0R0cdL0l59/ARSJvR3kT6Y+KIESOCfJZIKQI3hC0t73/o0CHTlUTHIGm3Ry1GonQArypevLi5T1xowio2cfz48SCfNezeZlatWmWycffcc4/bvhUrVjTjlbS7JMKT1XXJytK60mXaHdv6lVy31bFJmtlPvJ3rZxMyt0DajEWzKO3atTOfURq0XX/99UE7X4ROm9HpjF5++WXp0aOHnDp1Svbs2WNu2tNIP3f0sWZtYS8EbghrWixCM2eaPVGaFYmOjjYTbStdni1bNrfxSxYdY1KkSJGgnzPs3WY0sFM6Fi4xrRKoGTmEpxIlSpjPDE8TIuv8fjpxskUfawXbxNUArTGVrtsi8wqkzSj9IUm7cGvXfu0doFVvEV78bTP6w7MGaTrkQ7vTWjetSKmfPfqYYlr2Q+AG/OvDDz80GRStrqRl262xSlplSbtEbt++3bmtfpnSZTqZJcKXpzZjZd4ST5KsE3jrZLg1atTIkHOFPbRv395MH7Fv3z7nMv2SreMn7733Xuey1q1bmx+NdHykRX8Fnzx5svlidssttwT93GHvNqOefPJJ87mk7UazbghP/rQZ7TX06aefJrlpdUkdC6ePhw4dmoGvAp5E6GRuHtcAmZh2Zxs5cqS0aNHCzHOj1QKnT59uArEvv/zSbR4TLUSh5d01iOvbt69Z9uabb5rMiZbV1S9RyPwCaTO6zZIlS8z4Nn2s3VMmTpxoujD9/PPPpkIlMh8d03jixAmTjf+///s/88XZCtT1C7WOe9QvUrqsQIEC0q9fP/OLt4571Kyt/gjg2u1Nx0/qOv3Vu3bt2vLZZ5+ZCnA6zYQWnUDoS8s2M378eFNo4uabb3ab/8+in0c6xQRCW1p/ziSmBdjmz5/vLM4Gm0nV9N1AiPrrr78cLVq0cBQuXNiRPXt2R5UqVRyvvPKK48KFCx63//nnnx3NmjVz5M6d25E3b15H69atHTt27Aj6eSM02sy5c+ccI0eOdFStWtWRM2dOR/78+R2tWrVybNq0KUPOHcFRunRp/SHU42337t3O7X777TfTlnLlyuUoUKCA46GHHnIcPHgwyfESEhIco0aNMse96qqrHNddd51j9uzZQX5VCJU207lzZ6/HSnw8hK60/pxJTNuRfteBPZFxAwAAAACbY4wbAAAAANgcgRsAAAAA2ByBGwAAAADYHIEbAAAAANgcgRsAAAAA2ByBGwAAAADYHIEbAAAAANgcgRsAAAAA2ByBGwAAAADYHIEbAADw6pFHHpGIiAh54oknJJydO3dOihYtaq7FihUrMvp0AIQhAjcACDH6pVG/PPp7mzFjRkafMkLU+vXrZfbs2XLVVVfJM888k2xbzJs3rwlwknP+/HnJnz+/276egiHX47/44ot+nXOXLl2c++zZs0fSSq5cuWTgwIHmcf/+/cXhcKTZsQHAHwRuAADAo+eee84EKN26dZPo6Ohktz9z5ox89tlnyW73+eefy6lTpyTUPP7443L11VfLL7/8Ih9//HFGnw6AMEPgBgAhrHfv3rJlyxaftzZt2mT0aSJEs21Lliwxj5966qlkt8+RI4e5f//995Pd1trG2idUaEaxZ8+e5vHLL7+c0acDIMwQuAFACNMxN9dff73PW4ECBTL6NBGCJkyYYO7r1q0rFSpUSHb7e+65x9xrsHfw4EGv2x0+fFgWL15sHrdu3VpCzYMPPmju9UcRxroBCCYCNwAA4ObkyZPyySefmMcPPfSQX/u0aNFCihUrJgkJCfLBBx943U7XXbp0yWzbvHlzCTXVqlUzN/Xee+9l9OkACCMEbgAQJrS4g1W0wfpy/tJLL0mNGjVMVs5bIRMds3TvvfdKqVKlTNc23bZWrVoyYsQIOX78eLLPGxMTY8YGlStXzuxfvHhxk5357rvvPJ6XKy0u4W+RlTJlypjttDiFLxs3bpTHHntMKleuLHny5JHcuXObx9rtdMeOHV730+d3LXpx+fJleeedd+SWW26RggULmuPccMMN8r///c+vAh26vwYx7du3N9c2Z86c5lapUiUTLM2fP1/i4+PNtnqvgY4+9x133JHssX/77TfnuY4ePVoCpWPQLly4YB7r+fkjMjJSHnjggWS7S86aNcuZudJ9gsm1raWmsI91TfTfRlxcXFBfA4DwlTWjTwAAEHx//vmnyZD4qrqnQVmHDh1k2bJlbsv1C/3PP/9sbpMmTTJf8uvVq+fxGKtXr5ZWrVq5FaKIjY2VL7/80tz8rRSYFjRQGjRokIwfPz5JRUAN2PQ2depUefvtt53jmLzRwEyv39KlS92WW+MKv/jiC3PdNJjzRK9727ZtZfPmzR7fG73NnTtXli9fLo0bN5Zs2bKZsvxjxowxXRH3798vJUqU8Hp+06ZNM/dZs2Y1+wVKn1eVLFnSBNr+evjhh2XcuHGyadMm+f333+W6665zW79161YTOFvbenr9ocBq71qMRdt4KGYOAYQeMm4AEIY0INMv/08++aQJBDZs2GCyP5p5soKzZs2ameBDsyL6JVvX//jjj+aLqmaVChUqZMYrtWzZUv7+++8kz7F3715n0JYlSxaT5dIs208//WS6mFWsWNEEbgsXLgzKa9bXqkGFBm0NGzY0wY2OUdIiHO+++64JMrQLX69evUzg5UuPHj1McNO5c2dz/hrEfvrpp3LzzTeb9XpMb8UrDh06JPXr13cGLU2bNpWZM2fKunXrzH4ffvihOQetXujq0UcfdQagVtbKE83OaQl/deedd5pMXaD0PVa1a9cOaD/N3lrBmqesm7VMx15Wr15dgq1Pnz4+C/lotUjX89JMqCd16tRxPl65cmVQzh0A9H9gAIAQsnz5ck0XmVvv3r0dW7Zs8Xo7dOiQc7/hw4c798uSJYvj22+/9focw4YNM9sVKFDAsWHDBo/b7NmzxxEVFWW2e/DBB5Os79Chg/P55s6dm2T9qVOnHDfeeKNzG0//S9q9e7dz3fTp031el9KlS5vtOnfunGTd4sWLnceZOnWqx/3Pnz/vaNq0qdlGjxUfH++2Xp/f9Vzff//9JMeIi4tzXH/99WZ9oUKFkhxDtW3b1nmM1157zevrOX36tOPYsWNuyxo0aGD2q1Spktf9FixY4Dz+p59+6giUthlr/5deesnvtmi9P/qa9O+SJUs6Ll++7NxWH+syXTd69Ogk11SPlZq2bt1at27t3EfbTyAGDRrk3Ff/DfhStmxZs90dd9wR0HMAQEoRuAFAiHH9MpvcTYM1T4Fbt27dfAYM+fPnN9tNnDjR57lMmjTJbJctWzbHmTNnnMtjY2MdkZGRZl2rVq287r9u3bqgBG5WQNa+fXufx9i6davz+TTYc+UaZLRr187rMSZPnuzc7pdffnFbt337dkdERIRZ16ZNG0egZs6c6Tz2mjVrPG5z9913m/VFixb1GDgm5+eff3Y+x5QpUwIO3GJiYswPA7ps2bJlzm31sfWjgW4TaOCWklsggduMGTOc++l74xp0elK3bt1kg2gASEt0lQSAMOSrUqB2/dLCJVaXSl+0y6HVPU+7C1q0G6FWF1Rdu3b1ur92OUs8DiqtaVdNq2x7cq/n2muvlcKFC5vHa9euTdH1u+mmm5yPd+3a5bZOu1Va4+sGDBgggdIiMfnz5zePp0+f7rEb5tdff20ea/dWHeMWqCNHjjgfa9GVQOnYuyZNmiTpLmk91q6hvsbnZYTvv//eOa5RC8xoV1NPxXJcWV1ZfU19AABpicANAELY8OHDTSDg7eat+Id+OfVGx7tZoqKifFbd07FKFtcvsDpeyJLcOCnX8ULpQQtl6LgwpVUPk6skePTo0WS/kFepUsXrOtexaadPn05yLkqLjXgr6OKLVp205hH76KOPklSv1OBIx+mpbt26SUocO3YsVYGbsgqi6JQC58+fNzetkum6Lq3bunXTcYeB0LGY7dq1k4sXL5p5EXV8o7eiMq6sa3P27NkUvR4ACBSBGwCEIV9fyLXgSEq4BhGuX/71y7Av11xzjaSntHg9ieXKlcvrOi3EYrGyjhYrKNTg7qqrrkrReVlFSjQotIIhi5WF00mzq1atmqLj65QNFg24UkIDIb1Gmu3UqqNaNl/PVwMiXWcXWhXy7rvvNm1E348FCxZI6dKl/drXujYahANAMDAdAACEIV/zZ7kGG1q63d8vptHR0R6XJ9flLL25vp4pU6aYedf8kdJsU3qrWbOmqd6o2TsN1KwMllal1HL7qcm2qSJFingMwAOh8+PpdAdz5swxWUCre6gu8yebFQx6Tp06dZJff/3V/D158mRT7dNf1rXReQ0BIBgI3AAAbrTMv+uXeG8Bmb9Bj4670vnAvNH1/mSvrO6O3njrsub6ejQL5Nq9M9is8XP6pV+75qUm66aTmut4xN27d0vZsmWd2TZ9jffff3+aBG7+TLDujQaUGrgtXrzYbZldDBs2zGQD1cCBA32OxfTEujbepgwAgLRGV0kAgBvN5rgWbUiJatWqOR/rvG2++FqfN29ev4IIDYT++ecfj+t0Xi4r65fS15OW2TKrmIuv4ifJ0eIoOt5Ns0YzZsww3fbmzZtn1rVv317y5cuX4mOXK1fO2RVUJyVPqdtuu82MkdQxd3rTibx1mR1oQPnqq68657rTic0DoT8iWIVn0ru4DgBYCNwAAG504m3ri/ubb77p7OYWCK0qaHXH1MmlfQVtv/32m8/MndUVzbVoSmIatHg7T80gWYVA5s6d61Y1MdjuuusuZxA5fvz4FB9HK0taFTL1+upYN6sSaGq6SSYunJJc0O2LNXF79uzZzU0fu2ZQM4pOIt+9e3dnFVFtO4Gel3ZJ1fFx1nhCAAiGjP8EBQDYigZKTzzxhHn8ww8/mLL1vropalfHqVOnui3TTEvr1q3NY63SpxUQE9Mvvr169Ur2fKwpB7Rb286dO5Os/+OPP+T555/3eYznnnvO3GuxDA14Tpw44XXbCxcuyNtvvy1xcXGS1ipVqmTGeSkt2OEr06NdP31lGa0iJX///bc8/fTT5nH58uWlUaNGqT7PBg0amHsd/6XXI6Vee+01cx31ZmW4MtK+ffvM9dfXpAVivvzyyxRlJ9evX+983KJFizQ+SwDwjMANAJDEyJEjnZmECRMmmC5+GsxoV8PNmzebedreeustadOmjRnjo4UdEnvjjTecXR21hL2OydL9dL43HY+l851pgY1atWr5PJc+ffqYe+0O2LhxY3nvvfdM0ZRVq1aZEvF6nvol3HVsVmItW7aUfv36mce6n2ZaRowYIUuXLjWvR1+XZq40GNKgUwNXq6x+Wps0aZLpNqg04NLug1rAQ7NbmlXU7JleK72uv/zyi8+AVgNB16kLunTpkibFYKygW8fhrV69WjIL7WJqXSttO9qmNOPr7eYtwNd2o2688UYzvhAAgoHiJACAJLRr25IlS0wgoCXSNYCwsnCeeMpalClTxmTb7rnnHlMKXgMWvbl64YUXTKDhqxvk7bffLn379jXdNmNiYpyZJosGOPo8OlbJl3HjxpkA76WXXjJf3r3Ncae08qGvypupodMfaDCkwZEGB8uWLTO3lNAuf0OGDDGPtbufvl9pNc5RA2sNsrV7qXafzQx0zjaLFcj7oj8wJL6mOk2EVdREq1ICQLCQcQMAeKTZMp1AWYMMDZYqV65slmXNmtUEQDqxtmaGFi1aZII8TzRD9vvvv0vv3r3N/FhaRVEDFx3r9c0335islz8066cBhGaZNEjUwhx6Ps8884zJvmkGLTkaIGqgqAU3NNOlmT59HRqg6evSec80I6OZt9jYWPMc6UULgGimTwuL6LXQLJ+OLdPn1CyaVl/U4MDqsuiNjhuzNG/ePEUVQL3p2bOnudfAPTXdJTMbfV+0G6vOdxdoJUoASI0IR0pGnQMAkEY082UFcPwvKTAaMFtjrD788EPp2LFjmh1bxyBqgKnFXGbPnm2CWlwp3qNdJXV8pqcuwgCQXsi4AQAQoqZNm+acq84al5ZWdBJtq+jLqFGjkp1HLxxoRUoN2jRzrPPAAUAwEbgBABCCtMKmFjJR2mVPxyWmtccee8xk3bT8vfVc4czKDOv4OCbeBhBsFCcBACBE7N+/3xTH0MmftSiJVr7UsVY6ZUN60HF3Og5Ps0zpVWUzVOh11/nt9JZe1xsAfCFwAwAgROg4s5UrV7ot0yqZ1vQC6UELpCRXJCUc6KT0OoUAAGQUAjcAAEIwiNDqk/3795fOnTtn9OkAAIKAqpIAAAAAYHMUJwEAAAAAmyNwAwAAAACbI3ADAAAAAJsjcAMAAAAAmyNwAwAAAACbI3ADAAAAAJsjcAMAAAAAmyNwAwAAAACxt/8H2zXnVKYSePQAAAAASUVORK5CYII=;" parent="1" vertex="1">
          <mxGeometry x="560" width="250" height="119" as="geometry" />
        </mxCell>
        <mxCell id="do8SZg7GIAW0Qb1SnnI4-13" style="edgeStyle=orthogonalEdgeStyle;rounded=0;orthogonalLoop=1;jettySize=auto;html=1;exitX=0.5;exitY=0;exitDx=0;exitDy=0;" parent="1" source="do8SZg7GIAW0Qb1SnnI4-2" target="3GcPlbI8JUl-vQ_FGAqm-20" edge="1">
          <mxGeometry relative="1" as="geometry" />
        </mxCell>
        <mxCell id="do8SZg7GIAW0Qb1SnnI4-2" value="" style="shape=image;verticalLabelPosition=bottom;labelBackgroundColor=default;verticalAlign=top;aspect=fixed;imageAspect=0;image=data:image/png,iVBORw0KGgoAAAANSUhEUgAAA34AAAGjCAYAAABzFsfMAAAAOnRFWHRTb2Z0d2FyZQBNYXRwbG90bGliIHZlcnNpb24zLjEwLjEsIGh0dHBzOi8vbWF0cGxvdGxpYi5vcmcvc2/+5QAAAAlwSFlzAAAPYQAAD2EBqD+naQAAdedJREFUeJzt3Qd8U1X7wPGnFGQPZchomTIUUURkvTIVUKYg4mY4cLMEFV95EUVRUAHXXxAFlaUgLoaIDCkOEAEFQVGG7D0FCqXN//OcemOaJk3aJrkZv+/nE5LclXPvSUqenHOeE+dwOBwCAAAAAIhaeewuAAAAAAAguAj8AAAAACDKEfgBAAAAQJQj8AMAAACAKEfgBwAAAABRjsAPAAAAAKIcgR8AAAAARDkCPwAAAACIcgR+AAAAABDlCPwAAAAAIMoR+AGAn7755huJi4tz3r777rscHWf58uXSr18/ufzyy6V06dKSP39+KV++vDRp0kSGDx8uf/zxh1/HcS2L3pYtW+bXfq1bt86w39NPPy2BkJycLJMmTZIbb7xRqlWrJkWKFDE3fdy1a1d599135fTp0wF5LWTf0qVL5a677pJLLrlEihUrJnnz5jX3tWrVkk6dOsmIESPkhx9+kLS0NLuLCgAIBgcAwC+9e/d26J9N63bfffdla/8dO3Y42rdvn+EYnm758uVz9OvXz5GcnJzl8dz3u/fee32WYefOnY48efJk2G/YsGGO3Pr0008dFStW9HluiYmJjk8++cQRCpUqVTKv2bNnT0ckad68uSm33gfCiRMnHDfccIPPurFu8+fPd0Qrfa9b5wkAsYYWPwDwg7ZUzZo1yzzWViz10UcfyZkzZ/zaf+PGjdK4cWOZO3eueV6jRg0ZOXKkfP311/LTTz/JvHnz5NFHH5ULLrhAUlJSZNy4cXL99dfLiRMnfB67QIEC5n7mzJk+yzNt2jTTomPtEwivvvqqdOnSRbZv326ea+vRBx98YFpEv//+e5kyZYrccMMNZt2OHTtM65/ug9Do1q2bfPrpp+bxRRddJC+++KIsXrxY1qxZY1qftZX2nnvukTJlythdVABAMNkdeQJAJJg6daqzpeDdd991Pp45c6bPfY8fP+6oVq2ac58BAwY4zpw543Hbffv2OVq1auXctnv37l6Pa23TuXNnR/78+f0qT506dcx2N998c0Ba/ObMmeM8TvHixR1ff/21120XLVpkttFt4+LiHHPnznUEEy1+Geunbdu2WbYinzt3zjFr1izH+vXrHdGKFj8AsYwWPwDww/vvv2/uL7vsMundu7fUrFkzw/KsPP7447J582bzWFtWXnnlFTnvvPM8bqutLl988YUZ/2e1KmpLXlZKlCghHTt2NI+1pc2bn3/+WdatW2ce9+jRQ3Lr77//NtdC5cmTx5T7mmuu8bp9q1at5PPPPzfbatyq+548eTLX5YB3n332mfPxyy+/bMaTehMfH2/GZ9auXTtEpQMAhBKBHwD4sGfPHtMlU91xxx0Z7r/88ks5cOCA1333799vkpqoCy+80Hz59qVQoUIyfvx45/MXXnjB5z533nmnuZ8/f74cOnTI4zZWkFqvXj2T4CO33nnnHee533fffdK0aVOf+zRr1kz69OmT6dq4atGihUk6o/dZ0aQ0VoIaT/v/9ddf5vl7772XKRGO67G3bdvmXD558mSzTIPta6+91gTiBQsWNAlQhgwZIkePHvVanl69epljVK5cOcty62tYr6ev7b6/JhHylEzIn2O7s7rfWt08c8r9Wut1GDZsmAkSteuzdlFu2bKlTJ8+3e9EQK+//rr5oaBs2bLmhxC91nrN9X117tw5n8fQbs0TJkyQ9u3bS4UKFUxQW7hwYVMm/YFlwYIF5gcG12uuyZMs7tfWvT7c34eadOnhhx+W6tWrm8+o6/be6tSdp/daVu+hvXv3yqBBg0zXcH1NPc/u3bvLr7/+mum4ffv2Ndvp+1X/1tx+++3OH5wAQBH4AYAPU6dOldTUVNNSddttt5ll+qVKv6DpeLysvuzOmDHDOe5OMypqFkV/NGzYUBo1amQer169Wn755Zcst9fxgCVLljTl0dd0p+XX8X2uQWJuaUBl0Syl/nLdVseXhZu7777bfLletGiRCWw1SPn9999NAK5BxW+//SaRwrVlWceZBsLWrVulfv368swzz8iGDRtMq+2RI0dM1lD9fNx8881ZBm7a8qyB9COPPGLGGu7bt8+8b/Va6zXXoE0z3Opyb9auXSsXX3yx+cFBx8fu3r1bzp49K6dOnTJl0uDxuuuucwb/gWg5veKKK+SNN96QP//8MyTZafU66Wvqj0UadOpr6nnqjxL690HHZyq9hnXr1pXXXnvNbKfvV/1RRT/vV111VaYgEUDsIvADAB+s7pP6y7/+4q6qVKlivpz66u7pOsWC1R3TX5okxZKUlJTltvny5ZNbbrklQ3ldaYulth5oCv9bb71VcuvYsWPmi6nSVgar66s/9Eu/7qM0oPUngU12aDCpXVp1igzVuXNn89z15i3gfPPNN00rZIMGDUxAv2rVKhNYaCCo9It327ZtA15m9dxzz5myaVCl9N693F999VW2jqmtuxZtrcqqddpfGthp8Hf//feb99WPP/5oAi2rTrV78uDBgz3uq0FT8+bNTUCmP4JoK+onn3xirrO20D300EPmParH1HrTgNCdBrDauqxlUJpY6MMPPzT76HQU+nnUFnlt/bNociG9fg888IBzmfu11Zv1+XZvNdXjaYubBv/ffvuteR0NtKxET4GmAayelwazzz//vPM1teVVg3kNtvUHHL2eem5FixY1CaF0Gw0IBwwYYH6Y0oBcf8gAAMPuQYYAEM7WrFmTIamLq//7v/9zrvv111897n/RRReZ9TqFwqlTp7L12l9++WWWUzVY66zkJStWrHAu27RpU4Ztb7/9drO8Xbt25vnWrVtzldxl+fLlzv1vueWWbO+v+1j7f/vttzlKbuIrUYe/yV1cr4V1jVJSUjJt98wzzzi3GTx4cKb1+jq6Tl83K5MmTXIeR187mMldtm/f7ihUqJDz9QoWLOjo1q2b47XXXnOsXLnSa5KhrK613qZNm+YxidHll1/ufL+vW7cu0zZNmjQx66+44grHgQMHPL6WTidhTTkyYcKETOvr1avnfI3p06d7LfPBgwczfeayk9zFqge9lS9f3vHXX3/luE49vdd0H2/vIb2VKlXK8eeff2ba5vXXX3duU7p0aUf16tUd+/fvz7Sdvket7VavXu3zfAFEP1r8ACALVmuejpvRxBeutBXI6krnrdXv4MGD5l5bN/QY2aHjdCzexu250lYqq9VFp1BwTcKirSqB7OZpnZfSMVrZld1zCxUdJ/b222+bVid3//3vf+XSSy81j7WFS1tjwl1iYqJpDbNapqxpSbSbpb5f9H2p4y7HjBkjhw8f9uuYHTp08NhqrK1OOuZO6ZQhb731Vob12mqtU3xY3YRLlSrl8fjaRVOnoFDu4+C0xVO7Pisd02a1cnuiXZ+z+5nzRlv6KlasKKH07LPPSrVq1TIt1y7j1nQs2oKrU6OULl0603aurZu+egwAiA0EfgDghY5TssbFaTdN9/F5mtCiXbt2znGA+mXXndUlMCddwlz3OX78uF/7WIGda+A3e/Zs03VMy6/d5wLBtatjqM4tFNq0aePsIupOx3j27NnTPNYgyQpAwp0Gato9UgMl92BLx59qUDBw4EATZPiTpdbK5OqJBpNWVlArIZJFM7oq7RZcp06dLF9Dg1Gl3TddxwvOmTPH+bh///4SCvrjzk033SShpN00re7F7jSY1QQz6vzzzzddjz3R7ugajKstW7YEsbQAIgWBHwB4oWOOrAQTVhZPd9bynTt3ypIlSzKtt754aatbdrnu429SGA389EujftHTcUHK+jKvrSiBagGxzsu9nME8t1DQZBhZ0cDGYk2NEQkSEhLMGDB9P//0008mSYm2HFkBhJWpUwNbXwl3/L1GmzZtytAqquP4lCbK8ZRR0/Wm4xGVjvFzbYnUSeeVtr5VqlRJQkGvkdXCFioaoOsPS1lN4WJlanXPautpu2CMSQUQeQj8AMALK2DSLmPa/cxba4r15cpTa4nVwqKtWtnNBOia1VDL4A/9MmxNq6BJXnbt2uUMSAPVzVO5thxp0pjsysm5hYJOKeBvF1V/u0aGE2211IQvDz74oOmuqsGZBmRXX321c5tHH300y0DB32ukw1A1uYhFM03mhLZWu3cxLleunISKtqqFmiaS8VWP2dlOs/oCQOZBDAAAk7XS6pqmY9C8TbjuSrtUalZI12yCOuG7Zt7TbqCaBdOaosEfrl0JrQnd/aEBnmYT1eyKmqVQX1tbSDSbYqDoWDf9UqnHtlphssM6N5003Bo3Fw6yaj2JVldeeaWZj1KnBND3qgZr2k1Ts0oG8hpZwYe+l127IvviKdNmKOl7FACiAS1+AOCBBk06H1Z2uy9q8OdprJKyAkl/uW7vehxfdDySdk3TL/CaCt7qkhrIoKZ48eImqLW67mnLkb9ct9cgwL2rp9VK4WnMpCtNaR9oWc0d577evSueneXOLf2xwjVhiwaAub1G+n5zbS2zWnb1c6LBvr83narEvaV5z549Ek6suvdV/+FY9wBiB4EfAHhgddvULmU6n5uvm46hct3PolkHNVOk0rFT/o6Hs+Yks1pkfCXDcA/KrDkAreA1kN08Lb169XI+1syC/nLd1vUY7uMHXbsJeuIr2MxJoKvX3d/17i2VVrl1rFyoyx0IrkltsiqDv9dIx8a5tpTrZORKx5/mpHuw67yEOrdeTiZnD9a1dR3zmtX7Njs/kABAoBH4AYAbnRjaSoyiUzho8ObrZk31sHjxYjOuznW8kxXc6JddbxNbu9KxgPfdd5/z+eOPP57tc+jRo4cJOPXWuHFjM2l6oGlyEKsFRlP3W9csK7rN+PHjnWPF9BieshFaX5K9jTXTsV4LFy7M8rWshByaudJfOl2At9YkbcnRaQiUtmS5To7uWm4ts7ZqeqLJTj7++OOAl9ub9Oke/WMlX1FVq1b1up11DbwFfevXrzePr7322gzrrB8jtEyaaCYnNLuuRaegyC7XJC2BuL7ude9+Hd3pj0QAYBcCPwBwo6121hdmaz4xX6ztNDhwH780atQo5xdDDZA0+NNshd4CGv2CbI2b05TuOUkl3759e9Papzdr7rRgtHJoghBr/JYmuvGU2dSydOlSs4011ktbQF3HQ1qssYgaJL322muZ1uu1u+eee3wmy7ESgGzevNnvc9JgQINuT8kwdC43K5OnBqxWS657udXLL7/s8fg6bYLrDwNZlVtbxrITuHmic7lpd19fiWg0iLYCOq0T96DNvQuydoV2p63Z1g8W2vXR9ccLa6oMK+Pn6NGjPR7DlV7rL774IsMyLZe2gCt9b8yYMcPr/jo21/094poUJjvvC1+09dfq+vv66697DCr1fGfOnBmw1wSAbLN7BnkACDfVqlXTb9uOMmXKOFJTU/3aR7crV66c2a927dqZ1q9bt85Rvnx5s15vNWvWdLz44ouOxYsXO3766SfH/PnzHYMHD3aULFnSuU2LFi0cx48f9/qa1nY9e/bM9jlu3brVuf+wYcMcufHyyy874uLinMe74YYbHFOmTHF8//33jh9++MExdepUR9euXZ3b6P3YsWO9Hu/MmTOOSpUqmW3z5MnjGDBggCMpKcnx448/OiZPnuyoV6+eOUajRo2cr+nJf//7X+f6kSNHOtauXev4448/zG3nzp0er0X9+vXNfcOGDR0zZsxw1s0tt9zi3CYhIcFx9OhRj6/ZuHHjDPVi1a8eq1WrVmZ5kyZNnNvoa7t7++23nev79+/vWLVqlbPc27Zty1bd3HjjjeY45513nqmXMWPGOBYuXOhYvXq1Y+XKlY5p06aZc9PrbL2mbuNO3yOu1yg+Pt7x4IMPmvPT8r377rvmPW1t88gjj3gsz59//um44IILnNt17NjRvFdWrFhhjjNv3jzHc88956zbRx99NNMxNmzY4ChSpIjzGPre+uijj8z+ehx9v+m1L1y4cKbrq9fQ2q9NmzaOb775xrFp0ybn9U1JSXFu27x5c7Od3vtjyJAhzmNrHX/66afmOuv756677jLX2LXuJ02alOkYWm5dp+//rPhbNutzlJO/EQCiD4EfALhYvny584vZfffdl6199Yuwta9+CXX3119/Oa677jrnNt5uefPmdfTt29eRnJyc5euFS+CnPv74YxMQ+Tq3xMREx+zZs30eTwM9/eLu6RgadIwbNy5DMOKJBneuQYbrzfULs+u10C/jvXr18lp+De5//fVXr+XeuHGj+cHA2/6DBg0yr5FV4HfixAlH1apVPe7vKyBwp+8jX3Vi3QoUKOAYNWqUx+O4XustW7Y4qlSp4vU4Gmy6BlDufv/9d8ell17qV5mGDx/u8Rj6+dL3kq/9PV3f7t27+7V9dgO/kydPZvgxwv2mP+SsX7+ewA+AbejqCQAuXJOzWOP2/OW6vac5/XRKhfnz55upFnSCaqt7mGYt1LGADRs2lP/973+yYcMGMwbKvSthOOvatasZk6ddP2+44QapXLmymWNMb/pYl02cONGMffM2TYArnVdOJxrXpDSadESvkXbT02us169v375+TQOwcuVKufvuu81E1/5Owq1dUKdNmyYtWrQwmSi1HmrUqCGPPfaY/Prrr3LJJZd43VfHUupUFdrFUudU1OQmpUuXNvNAzp0713Rx9KVIkSKme26/fv3k4osv9jlXW1b0faRJUHRcpWZ21SkbdHxi3rx5pWDBgubaavfJ5557ztSfP2NQtduy1s2TTz7pLJ8mFNLMs9rNedasWeb43ui1XLt2rbnGWp/6udCy6LXSOtbr/tRTT5nX0M+DJ9rdU99LmiioVatWZryovqZeO02E1KdPH1m0aJF577nTMmr3a+12quV2zciZG3oddIyvXkstg56TZqzVCe+1+6dOkeGpazMAhEqcRn8hezUAAMLMtm3bnGMwNejzlGk01j399NMyfPhw85ivDQAQmWjxAwAAAIAoR+AHAAAAAFGOwA8AAAAAohyBHwAAAABEOQI/AAAAAIhyZPUEAAAAgCjnfaIdBE1aWprs3r1bihYtKnFxcXYXBwAAAIBNtB3uxIkTZm7VQM0t6gmBnw006EtMTLS7GAAAAADCxI4dOyQhISFoxyfws4G29KmtW7fKBRdcYHdxYk5KSop89dVX0qZNG8mXL5/dxYlJ1IH9qAP7UQf2ow7sRx3Yjzqw3+HDh6VKlSrOGCFYCPxsYHXv1MotVqyY3cWJyT9whQoVMteeP3D2oA7sRx3YjzqwH3VgP+rAftRBeNSBCvYQMLJ6AgAAAECUI/ADAAAAgChH4AcAAAAAUY7ADwAAAACiHMldAAAAgCibFy41NVXOnTvnV2KRvHnzSnJystkHgaPJcuLj4yVcEPgBAAAAURLwHT16VA4cOOB3EKf7lC1b1swhF+yskrGoRIkS5vqGw7Ul8AMAwB/6JSopSWTPHpFy5USaNhUJo19yAWDv3r0m8NOpGfSmLXm+Ao60tDT5+++/pUiRIpInD6PAAkUD6lOnTsn+/fvN83L6/4bNCPwAAPBl9myRfv1Edu78d1lCgsi4cSJdu9pZMgAwtIXv2LFjUrp0aSlVqpTf+2ngd/bsWSlQoACBX4AVLFjQ3GvwV6ZMGdu7fVK7AAD4Cvq6dcsY9Kldu9KX63oAsJmO1dNWpsKFC9tdFLgoVKhQhkna7UTgBwBAVt07taXP4ci8zlrWv3/6dgAQBsJhLBnCsz4I/AAA8EbH9Lm39LkHfzt2pG8HAEAYI/ADAMAbTeQSyO0AALAJgR8AAN74m4UtDLK1AQACb9u2baa75uTJkyXSEfgBAOCNTtmg2Tu9jdHQ5YmJ6dsBQJTSYcxLl4pMn55+b8ewZg28NACzbjpVRYUKFaRXr16yS5NtwSemcwAAwBtNva1TNmj2Tg3yXJO8WMHg2LHM5wcgaoXbbDbPPPOMVKlSRZKTk+WHH34wAeHy5ctl/fr1ZkoKeEeLHwAAWdFvNrNmiZQvn3G5fvPR5czjByBKheNsNtdff73ccccdcs8998jEiRNl0KBBsnnzZvn8889DX5gIQ+AHAIAvGtxt2PDv83nzRLZuJegDELUiZTabpv90tdfgz/Lbb79Jt27d5IILLjCtgPXr188UGB4+fNgEjXXq1JEiRYpIsWLFTFD5888/S7Qi8AMAwB+u3TmbNaN7J4CoFimz2WjyFXX++eeb+19//VUaNWokGzdulCeeeEJefvllM6n9DTfcIJ988olzvy1btsinn34qHTp0kFdeeUUGDx4s69atk+bNm8vu3bslGjHGDwAAAEBEzGZz7NgxOXjwoBnjt2LFChk+fLjkz5/fBHCqX79+UrFiRfnxxx/NcvXggw/K1VdfLY8//rh06dLFLNOWvk2bNkmePP+2g915551Sq1Yteeedd2To0KESbWjxAwAAABARs9lce+21Urp0aUlMTDTdObU1T7txJiQkmO6bixcvlu7du8uJEydMgKi3Q4cOSdu2beWPP/5wZgDVoNAK+lJTU8022uWzZs2asnr1aolGtPgBAAAA8DibjcZJnsb5aWJjXR/q2WzeeOMNqVGjhmn5e/fdd2XZsmXOlr0///xTHA6Haa3z1mK3f/9+Mw1EWlqajBs3Tt58803ZunWrCf4sJUuWlGhE4AcAAAAgImazadCggUnWonTcnnbhvO222+T33383wZzSpC3awufJRRddZO6ff/55Exzedddd8uyzz5pEMNoC2L9/f+dxog2BHwAAAACvs9n07Zve8mfRlj4N+uxObBwfHy8jR46Uli1byuuvv26COJUvXz7TJTQrs2bNMvvpeD5XR48elVKlSkk0YowfAAAAgIiczaZFixamFXDs2LFmSgZ9Pn78eNnjIevMgQMHMgSN2i3U1cyZM51jAKNRzAV+Z86cMRl9ypcvLwULFpSGDRvKwoULfe6n6V+1yVj3037EOoBUB5SuX78+JOUGAAAA7BDus9noVAz79u2TyZMnmzGAGtBp1s4hQ4bI22+/LSNGjJD27dtnaAXULKBLly6V3r17m2369u0r999/v1StWlWiVcx19ezVq5dp2tX+u9WrVzdvkHbt2smSJUtMH2FvdF4PnR9EU8Rq8+/evXvNgFL9heH777+Xyy+/PKTnAQAAAEBbH7tKtWrV5KWXXpJ7771XVq1aZaZ50O/5mq2zTJkycsUVV8j//vc/5z5PPvmknDx5UqZNmyYffvih1KtXT+bOnWvm/otWMRX4rVy5UmbMmCGjR482gz5Vjx495NJLL5XHHntMvvvuO6/7ur5RLPfcc49p+fu///s/eeutt4JadgAAAMAOhQt7zuwZ6sYbvXmiSVk0o6dFW+3ee++9LI+XP39+EyjqzZW2ArqqXLlypi6hkSqmunpqS5/25+3Tp49zWYECBeTuu+82rXY7duzI1vH014NChQqZQaAAAAAAEK5iqsVvzZo1Zt4PHfjpSrtrqrVr15rJILOiQV5KSorp6qmDSI8fPy7XXHONz3GFerPoPkqPozeElnXNufb2oQ7sRx3kQEqK5HM+TDHPc3c46sBu1IH9qIPA0WuoLVM6FUF2piOwWrOsfRFYek312mr9aAOUJ6F6/8dU4KfZfcqVK5dpubVs9+7dPo/RqFEjM0+IKlKkiDz11FOmxTArmmZW+xm703GF2mIIe/iT1AfBRR3YjzrwX3xysnT45/GCBQsktUCBgByXOrAfdWA/6iD38ubNK2XLlpW///5bzp49m+39T5w4EZRyxbqzZ8/K6dOnzUTz586d87jNqVOnQlKWmAr89KJrf1532t3TWu/LpEmTTIvdli1bzGPdJzU11fQt9kYzCg0cOND5XPfXlkWdO6RkyZI5Ph/kjP6qov/BtG7d2szzgtCjDuxHHeTAyZPOh2ZiYB30kgvUgf2oA/tRB4GTnJxshi1pw4T13dYf2hqlQV/RokUlzpqZHQGtF51JoFmzZl7rRRPQhEJMBX560V27XLpWiLXel8aNGzsf33LLLXLxxRebx+4DQ11psOkp4NQ/cPyRsw/X337Ugf2og2xwuU7mmgXoulEH9qMO7Ecd5J42RGjgpo0RWTVIuLO6d1r7IrD0muq1zeo9Hqr3fkzVrnbp9DSZo7VM5+jLDp3eoVWrVjJ16tSAlREAAAAAAi2mAr+6devKpk2bnMlVLCtWrHCuzy7t6nns2LGAlREAAAAAAi2mAr9u3bqZZvAJEyY4l2nXTx2r17BhQ2dGz+3bt8tvv/2WYd/9+/dnOt62bdtk0aJFUr9+/RCUHgAAAAByJqbG+Glwd9NNN5lkKxrIXXTRRWZyRw3g3nnnHed2Oqn7N998k2Gyxjp16phpG7RVULt4/vHHH2YfHZT8wgsv2HRGAAAAAOBbTAV+6v3335ehQ4fKBx98IEeOHJHLLrtM5syZYzLtZOWBBx6QuXPnypdffmkyH+nk7W3atJEnn3zSBIUAAAAAEK5iLvDTNKqjR482N2+WLl2aadnTTz9tbgAAAAAQaWJqjB8AAAAAxKKYa/EDAAAAkA2pqSJJSToHms6PJtK0qUh8vN2lQjbR4gcAAADAs9mzRSpXFmnZUuS229Lv9bkuD6HJkyebidBXrVoV0teNJgR+AAAAADLT4K5bN5GdOzMu37UrfXmIgz/kDoEfACB6uyZpsq7p09Pv9TkAwD/6N7NfPxGX6c2crGX9+/O3NYIQ+AEAok+YdE0CgIilY/rcW/rcg78dO9K3s0GvXr2kSJEisn37dunQoYN5XKFCBXnjjTfM+nXr1kmrVq2kcOHCUqlSJZk2bVqG/Q8fPiyDBg0y07LpvsWKFZPrr79efv7550yv9ddff0mnTp3MsXRKtwEDBsiCBQtM11NPswGEKwI/AEB0oWsSAOSeJnIJ5HZBkJqaaoK1xMREGTVqlFSuXFkefvhhMx7wuuuuk/r168uLL74oRYsWlR49esjWrVud+27ZskU+/fRTEzS+8sorMnjwYBMsNm/eXHbv3u3c7uTJkyaA/Prrr6Vv377y3//+V7777jt5/PHHJdKQ1RMAEDtdk+Li0rsmde5MRjoAyIpm7wzkdkGQnJwsd9xxhwwZMsQ8v+2226R8+fJy1113yfTp0+Xmm282y1u3bi21atWS9957zzkvt7b0bdq0SfLk+bcd7M477zTbvfPOOzJ06FCzbPz48c4gsbP+3yEi9913n1xxxRUSaWjxAwBEjzDvmgQAEUOnbEhISP/BzBNdnpiYvp2N7rnnHufjEiVKSM2aNU2XzO7duzuX67ISJUqYAM6SP39+Z9CnLYeHDh0yXT5129WrVzu3+/LLL00XUu3qaSlQoIDce++9EmkI/AAA0SMCuiYBQETQXhHjxqU/dg/+rOdjx9rae0IDsNKlS2dYVrx4cUlISDDj79yXHzlyxPk8LS1NxowZI9WrVzdBYKlSpcyxfvnlFzl27FiG8X3VqlXLdLyLLrpIIg2BHwAgekRA1yQAiBhdu4rMmiVSvnzG5doSqMt1vY3ivQSd3pY7XIYBPP/88zJw4EBp1qyZTJkyxSRrWbhwodSuXdsEhdGIMX4AgOjrmqSJXDyN89NfbHW9zV2TACBiaHB37bXaZJb+fN48kTZtIn6c9KxZs6Rly5ZmPJ+ro0ePmtY/i2YE3bBhgwkaXVv9/vzzT4k0tPgBAKJHBHRNAoCI4/o3s1mzqPgbGh8fn6EFUM2cOVN26Q+HLtq2bWuWff755xmSyrz99tsSaQj8AADRJcy7JgEA7NehQwczB1/v3r1NEKdTNdx///1StWrVDNtpBk+dJuLWW2812UNfffVVM+WDji9U7mP/whldPQEA0SdKuyYBgC0KF/bcfT6CPfnkk2aOPp3Y/cMPP5R69erJ3Llz5YknnsiwnWb6XLx4sTzyyCMybtw481znBGzSpInceOONzgAwEhD4AQCiUxR2TQKAWNWrVy9zs+gk7Xpzp614nmzbti3Dc83k+dJLL5mbr/2rVKkic+bMybBsrA4bMJ1JEiRS0NUTAAAAALw4ffp0huc6xk8ndtepIHSOv0hBix8AAAAAeNG1a1epWLGi1K1b18zxp9M//PbbbzJ16lSJJAR+AAAAAOCFZvacOHGiCfRSU1PlkksukRkzZsjNN98skYTADwAAAAC86N+/v7lFOsb4AQAAAECUI/ADAAAAooT7pOSwlyOM6oPADwAAAIhw8f9MWZOSkmJ3UeDi3Llz5j5vXvtH2BH4AQAAABEuX758Zm46zToZTq1Mse748eMmKLcCczvZH3oCAAAAyLVSpUrJrl27ZOfOnVK8eHETDMbFxWW5T1pampw9e9bMTZcnD21CgaLB98mTJ03gV65cOZ/1EAoEfgAAAEAUKFasmLk/ePCgCQD9DVB0gvKCBQuGRXASTeLi4qREiRImCA8HBH4AAABAFAV/etOxfjrnnC+63bJly6RZs2amhRCBo9czHLp4Wgj8AAAAgCgMOvwJ5DQw0QQkBQoUIPCLcnTkBQAAAIAoF3OB35kzZ+Txxx+X8uXLm77MDRs2lIULF/rcb/bs2XLzzTdL1apVpVChQlKzZk159NFH5ejRoyEpNwAAAADkVMwFfr169ZJXXnlFbr/9dhk3bpxp3m7Xrp0sX748y/369OkjGzdulDvuuENeffVVue666+T111+Xxo0bmwGxAAAAABCuYmqM38qVK2XGjBkyevRoGTRokFnWo0cPufTSS+Wxxx6T7777zuu+s2bNkhYtWmRYduWVV0rPnj1l6tSpcs899wS9/AAAZKLJG5KSRPbsESlXTqRpUx20Y3epAABhJqZa/DR40xY+bb2z6EDWu+++W77//nvZsWOH133dgz7VpUsXc68tgQAAhNzs2SKVK4u0bCly223p9/pclwMAEKstfmvWrJEaNWo45zixNGjQwNyvXbtWEhMT/T7e3r17nZNl+hpXqDeLTuRopc/VG0LLuuZce/tQB/aLiTpISRErP505z9yea4CPl9s6iPvkE4m/5RadhEtcZ95y6Nxd3bpJ6owZ4vjnB0rE8OcgzFEH9qMO7Beqax9Tgd+ePXuknHaDcWMt2717d7aO9+KLL5oWxG7dumW53ciRI2X48OGZli9ZssQkioE9/Enqg+CiDuwXzXUQn5wsHf55vGDBAkktUCCsjperOkhNlTYPPijxbkGfinM4xCEiZx96SBbmzUu3zxj/HEQK6sB+1IF9Tp06FZLXianAT5Ow5M+fP9Ny7e5prffXtGnT5J133jFjA6tXr57ltkOGDJGBAwdmaPHTlsWWLVtKyZIls3UOCMyvKvrHrXXr1sxXYxPqwH4xUQcnTzoftm3bVqRw4bA6Xm7qIO6bbyTvoUPe14tIoYMHpX2xYuJo3jxX5YxmMfE5CHPUgf2oA/sdyuLveSDFVOCn0ze4drm0JCcnO9f7IykpyYwL1P/4n3vuOZ/ba7DpKeD0d2JNBAfX337Ugf2iug5czsucY27PM9DHy00dHDjg12Z5dbtord8AiurPQYSgDuxHHdgnVNc9ppK7aJdO7e7pzlqmc/v58vPPP0unTp1MJlBNFpNXu9EAABBKHoYt5Go7AEDUi6nAr27durJp0yZnchXLihUrnOuzsnnzZjN/X5kyZWTevHlSpEiRoJYXAACPdMqGhASROPcRfv/Q5ZqsTLcDACDWAj9NwpKamioTJkxwLtOun5MmTZKGDRs6M3pu375dfvvtt0wZPNu0aSN58uQxg/pLly4d8vIDAGBowpZx49Ifuwd/1vOxY0nsAgBwiql+ihrc3XTTTSbZyv79++Wiiy6S9957T7Zt22YStVh0UvdvvvlGHA7Ni5ZOW/q2bNlikrksX77c3CwXXnihGRALAEDIdO2qE9SK9O0rolM4WLQlUIM+XQ8AQCwGfur999+XoUOHygcffCBHjhyRyy67TObMmSPNmjXzObZPjRo1KtO65s2bE/gBAEJPg7trrxUpXjz9+bx5Im3a0NIHAMgk5gI/nbph9OjR5ubN0qVLMy1zbf0DACBsuAZ5+iMmQR8AINbH+AEAAABALCLwAwAAAIAoR+AHAAAAAFEuYGP8/vjjD5M45fvvvzdTH5w+fdpMe6CZMy3r1683UyUULlzYJEQBAAAAAERA4JeWlmamOBg3bpx5bCVBiYuLk7Nnz2bYVoO+Dh06SN68eWXr1q1SoUKF3L48AAAAACDYXT3vu+8+GTNmjJkYvXz58maSdG/atWsnVapUMdvO0rmHAAAAAADhHfgtWrTIOfH5k08+aSZC/+ijj7LcRydQ11bBxYsX5+alAQAAAACh6Oo5YcIEZ0veiBEj/NqnQYMG5v7XX3/NzUsDAAAAAELR4qeJXHQs39133+33PgkJCeZeE8AAAAAAAMI88Nu/f7+5r1y5st/75MuXz9yfO3cuNy8NAAAAAAhF4KfTMqgDBw74vc/OnTvN/QUXXJCblwYAAAAAhCLwq1q1qrnfsGGD3/vMnz/f3NeuXTs3Lw0AAAAACEXg16ZNG5Oh84033jBz+PmiAeLkyZPNuEBNCAMAAAAACPPAr2/fvqa75+bNm+X+++/PctzewoULTaCYnJxsunnee++9uXlpAAAAAEAopnO48MIL5a233pIePXqY+fwWLFgg7du3d64fN26caRH89ttv5bfffjOP8+TJY1r9ihQpkpuXBgAAAACEIvBTt99+u8nUed9998mOHTtk/PjxpiunmjhxornXgE9psPfee+9lCA4BAAAAAGHc1dPSvXt3+fPPP2X48OFy5ZVXSnx8vAn2rJsmchkyZIjZpkuXLoF4SQAAAABAqFr8LCVLlpShQ4eamyZ6OXz4sKSmpprxfNbcfQAAQERSUyXum2+kwrJlEqdTI7VsKRIfb3epAABRLE9QDponj5QqVcqMASToAwDAxezZIpUrS97WraX+K6+Ye31ulgMAEEmBHwAA8ECDu27dRHbuzLh816705VEW/KWmiixdKjJ9evq9PgcA2IPADwCAUNCop18/zXiWeZ21rH//qImO/mnYNL1Yb7st/Z6GTQAI8zF+VatWDfgLa+ZPnf8PAICYkJSUuaXPPfjbsSN9uxYtJBoaNt1jXKthc9Yska5d7SodAMQmvwK/bdu2+XUwaxoHa/qGrJZbywAAiAl79gR2uwht2NT//rVhs3Nn8tkAQNgFfj179sxy/dq1a+Xnn382gV2JEiXkiiuuMIld1L59+8z6I0eOmGDv8ssvNzcAAGJKuXKB3S5MxVDDJgBEX+A3adIkr+veffddmTZtmiQkJMjLL79s5unLmzfjYXVah9mzZ8vgwYNlw4YN8tBDD8ndd9+d+9IDABApmjYVSUhI7+/oqTlMm8J0vW4XwWKkYRMAYiu5y6pVq+T+++83Uzf88MMPctNNN2UK+pRO6K7rvv/+ezOv34MPPmj2BQAgZmi/xnHj0h+7D3ewno8dG/H9H2OkYRMAYivwGzNmjGnNe/LJJ6V8+fI+ty9XrpzZNiUlRV555ZXcvDQAAJFHM5poZhP3/zO1pS9KMp5YDZvehvLr8sTEiG/YBIDYCvyStIO+iDRs2NDvfRo1amTuly9fnpuXBgAgMmlwt2GD8+m5L74Q2bo1KoK+GGrYBIDYCvwOHDhg7s+cOeP3Pta21r6hpq//+OOPmxbKggULmqB14cKFPvf7/fffZcCAAdKkSRMpUKCASVTjb7ZTAAAycIl6HFdfHXVRUAw0bAJAbAV+pUuXNvfz58/3e5958+aZex0XaIdevXqZbqa33367jBs3zow/bNeunc8WSB2f+Oqrr8qJEyfk4osvDll5AQCIgoZN0f/+o6hhEwBiK/Br1aqVmcJBA6lvv/3W5/bfffedGReorWXXXHONhNrKlStlxowZMnLkSBk9erT06dNHFi9eLJUqVZLHHnssy307deokR48elXXr1pmgEQAAZM21IbNZs6hr2ASA2An8nnjiCcmfP7/pPqmBXP/+/c2cfa4TtetjXabdJDVQTE5OlvPOO8/sG2qzZs0yLXwa8Fm026ZOLaEtejt0YiEvNBtp0aJFQ1RSAAAAAAjxPH7e1KpVS9577z2544475OzZs/Laa6+ZmwZ2Gihpy96hQ4fMOisI1OkedF5A3TfU1qxZIzVq1JBixYplWN6gQQNzrwFqoqYaAwAAAIAokqvAT3Xv3l2qVKli5ub76aefzDJtAdzjYWbWevXqyZtvvukMtEJNy6RTSrizlu3evTsor6vXwzUBzvHjx829TmuhN4SWdc259vahDuwXE3WQkiL5nA9TzPOwOV64HivA0ouSz+X/PAkrMfE5CHPUgf2oA/uF6trnOvBTV111lfz4449mUvavv/7ajIM7fPiwWXf++edLnTp15NprrzXb2en06dOma6o77e5prQ8GHVM4fPjwTMuXLFkihQoVCsprwjd/srkiuKgD+0VzHcQnJ0uHfx4vWLBAUv/5Wx8Ox3M9lo41D9SxAnGegZScrIP6OjjLVqBAqoSjaP4cRArqwH7UgX1OnToVOYGfpX79+uYWrnT6Bk9TT+i4Q2t9MAwZMkQGDhyYocVPu5S2bNlSSpYsGZTXRNa/qugft9atW0u+fNbv5Agl6sB+MVEHJ086H7Zt21akcOHwOZ7LsXT8e74SJcKjXAHmUjRTtjAqWux8DsIcdWA/6sB+OjQu4gK/cKddOnft2pVpudUtVef2CwZtZfTU0qgfLj5g9uH62486sF9U14HLeZlzzO15BvJ4bsfKVR0E+jwDyLUo6ecpYSmqPwcRgjqwH3Vgn1Bd91xl9Yw0devWlU2bNjnH2FlWrFjhXA8AAAAA0SZXLX7Lli3L1Ys300l9Qqhbt27y0ksvyYQJE2TQoEFmmXb91CyjDRs2dGb03L59u+lra0fmUQAAAAAIq8CvRYsWZsqGnND9zp07J6Gkwd1NN91kxtzt379fLrroIjMdxbZt2+Sdd95xbtejRw/55ptvMsxHeOzYMTNVhbImq3/99delRIkS5vbwww+H9FwAAAAAIGRj/FyDo0jw/vvvy9ChQ+WDDz6QI0eOyGWXXSZz5szx2fqo2+p+rl5++WVzX6lSJQI/AAAAANEZ+Ol0BL6cPHnSjKubMWOGrFy5Uv7zn/+YqQ3i4zXFc+jp1A2jR482N2+WLl2aaVnlypUjLsgFAAAAgFwHfs2bN/dru3bt2kn//v1NsPX444/Lu+++K1OmTKEGAAAAACDasnoOHjxYunbtKtOnTzctgAAAAACAKJzOQROnaJdJzawJAAAAAIjCwK9ixYrmft26daF+aQAAAACISSEP/Pbt2+dM+gIAAAAAiMLA74033sjQ8gcAAAAAiILAT+fAW7hwocnuqXPm6eTtmuQFAAAAABDm0znkdC6+6tWrm2kdAAAAAADBl6sWP83OmZ2bBoq33nqrLFu2TIoXLx64swAAAFEvNVVk6VKR6dPT7/U5ACAELX7Dhg3zuU2ePHmkaNGiUqVKFWnSpImULl06Ny8JAABi0OzZIv36iezc+e+yhASRceNEGD0CAGEQ+AEAAOQ26OvWTXsaZVy+a1f68lmzCP4AIOyyegIAAPhLu3NqS5970KesZf370+0TAIIa+D3zzDPmdvDgwWxl+LT2AwAAyEpSUsbunZ6Cvx070rcDAASpq+fTTz9tpmbo1q2blCpVyq99Dh8+7Nzvf//7X25eHgAARLk9ewK7HQDEKrp6AgCAsFWuXGC3A4BYFfLALyUlxdzny5cv1C8NAAAiTNOm6dk74+I8r9fliYnp2wEAwijwW7t2rblnWgcAAOBLfHz6lA3KPfizno8dm74dACBAY/zef/99j8s/++wzWbVqVZb7njlzRjZv3izvvvuuGd931VVXZeelAQBApElNleaSJOVkj+RZVk6kTdMcRWg6VYNO2dC3b/oUDhZtCdSgj6kcACDAgV+vXr1M0ObK4XDIU0895fcxdHud1L2f5mYGAADRafZsKdi3nyyVf1JytsvdjOu6y7UtU6XTBemBZP8Xykn9AU0l/jya+gAgKF09NXCzbp6WZXXTcX3/+c9/5PPPP5fmzZtn96UBAEAEzbget2un5xnXdX0OjlmkTmVZKi1lutwmDZ9oKfHVKufsWAAQg7LV4rd161bnYw3kqlataloAFyxYINWrV/e6n25ToEABKVmypMTTCR8AgJiYcT1TPhb90Vh7DumM6507+9/t0wok3WdxtwJJ7QdKf08ACFzgV6lSJY/Ly5cv73UdAACIIdmZcb1FC3sCSQCIQbmawD0tLS1wJQEAAPbTQEuDMp0RXSfH03kSshNQBXrG9UAHkgAQo3IV+AEAgCiiXSq1dc010MpuQpZAz7ge6EASAGJUyOfxAwAAYeifcXSZWteym5Al0DOuBzqQBIAY5VeL31133eVM0vLOO+9kWp4T7scCAAA2cRlHJ7kdR2fNuN6tmzji4jImZMnJjOtWIKkBqKfy6TF1vb+BJADEKL8Cv8mTJzvn73MN1lyXZ4dmBCXwAwB7pJ5NlV9eWyYnFq+XX/4sInUfacFcaLEu0OPo/plx3fFwX4nbk8sZ1wMdSAJAjPIr8KtYsaLHAM/bcgBAePrhsdlS8ZV+cmXqTrlSF8wT2f14gmwfOE4ajSIdfswKxji6rl3ldONrpXD54ubp6dnzpGCnNjkL0AIZSAJAjPIr8Nu2bVu2lgMAwivRohX0NRjdTZtvMiwvm7pLyo7uJj/ILIK/WBWscXQub9K0/zTLXatcIANJAIhBMZfV88yZM/K///1PPvjgAzly5IhcdtllMmLECGndurXPfXft2iUDBgyQr776ykxl0bJlSxkzZoyZyD4n1r/1rVw9uH2Ou1hpd611bybJqc17pFC1clLnwaZhcaxwLlugu7iF63mGc9lipQ4CeSzNqTGgb6pU2ZUk5WSP7JFysrVCUxnzarzfDR1aHm3p06DPPatXHnFImsRJ4iv9JXVEZ7p9xqJIGUcXyEAyjIXr36Jg/D8VqP8PYun/0Fiog1ipT+t4GhOEhCPG3HLLLY68efM6Bg0a5Bg/fryjcePG5nlSUlKW+504ccJRvXp1R5kyZRwvvvii45VXXnEkJiY6EhISHAcPHsxWGY4dO6b/qzqOiTh2xSc4vh/8cbbPQ/fRfR3p/0WbWzgcK5zLFivnGc5l4zyzf6yPP3Y4usrHju2S8Xj6XJfren+sGbMkw/7ebma7aPH33/+emz4Op+O5HOvskSPhUS59M8XFpd9c3xfWMn/fbK5F2/dv2czjXAr08c6ePev49NNPzX1unDvncCxZ4nBMm5Z+r89zKlz/FsXK3+9wLhvnGV3n6Xo8jQlMbHDsmCOYYirwW7Fihbmoo0ePdi47ffq0o1q1aiYAzIoGe7rvypUrncs2btzoiI+PdwwZMiTHgV+qxJlbdt4wum36fhm/sNl9rHAuW6ycZziXjfPM/rH0y+M9JbM+3r0lP/brS+a3D0/zK/Az20ULAr/s0+CuQoWM74vExBwFfbES+OmlqVjhnKO5LHHcItPMvT7PySUL179FsfL3O5zLxnlG13m6H4/ALwgGDx5sAjX3i/r888+bi719+3av+1511VXm5q5NmzYmcMxp4Ge9YXbGJzrOnfH97U230V8G3N90DpuPFc5li5XzDOeycZ45O88lX58zLXtZHe8vSTTb+UKLH4Gf3/T/SOt48+blqvkqnAM/Pa2FC1McAwf+aO5zcpqBapEP579FsfL3O5zLxnlG13l6Ol6oAj+/xvjldAxbVjQb6ObNmyWU1qxZIzVq1JBixYplWN6gQQNzv3btWknUSWXd6Hi+X375xeO8hbqvjvk7ceKEFC1a1Ou4Qr1Zjh8/nml8TYXUHfLTa0vlsr7NsjwH7Yet2fi8setY4Vy2WDnPcC4b55n9Y6mzi5ZJomR9vIqyQ35btFRSmmV9vFr3NpLdjyZI2bRdZj93OsZvT3yC2S4lJUWiQkqK5HM+TDHPw+Z44XoslZb27/EaNzbPzS1HRUvJ8Di3761AHe+TT+Jk0ACRqruXm3GzI175W+4qf7W8NEakSxcPYxy9JFyaf+/nMlNuypQwqYLskpnSTe7rM1Patevk11DEcP1bFCt/v8O5bJxn9o8V6WULy6yeuWHHNBB79uyRch4yklnLdu/e7XG/w4cPm8DN1741a9b0uP/IkSNl+PDhPsu3cfEPsvOiv7PcRgffmhTsYXascC5brJxnOJeN88z+sVTan2v8OJrIyT+TZN4838c73ulhuf3TISbIcw3+9Lla3PEhKfb1AsmulKMp0q2XfvkVmTV5puQrYYUNYuuxkpPj5ZZ/znPGgjlSoEBqjo8V6ONlONbiAB4rzM7T+PTT9PtV3+TuOAE63vffl5NNL+6Q76SfJMi/U0Ps2J0g/W4eK6sfT5TGjX1PW7H+5xLyv8P9s0yYNPTQAHl5VCm59PKjPo8Xrn+LYuXvdziXjfPM/rGipWy2BH49e/aUaHD69GnJnz9/puUFChRwrve2n8rJvmrIkCEycODADC1+nloWL27VSC5r5+MXhz+LmHm3fAn1scK5bLFynuFcNs4z+8dSjoKFRWb6Pl77e66WuJbNfW/Yrp18/0RVqTJ2oJRP+/eXRm3p29bvZbnlhRskJ07uP+l8fO2110rhMoVzdJyAH+vfQ0nbtm2lcM4PFfDjuR6rVatWUiIXAW44n2e40Va6OXd9LrO8tNLp8vsmzpS2T/tupSu4wr8W+auSz0nLdu18li1c/xbFyt/vcC4b55n9Y0VL2QLOEUNq167taNWqVablv/76q+lX+9Zbb3nc78CBA2b9M888k2ndG2+8Ydb99ttvIR7j55Z1zeZjhXPZYuU8w7lsnGfOzlMHHZ0smfXxTpZMzPYYLH39VS997fig3Qhz73d5QjDu6tjuf4+1YPbfucqOGCFD/BxHjuQuo2Q4n2e4CeS42V+f8i9hktnOD+H6tyhW/n6Hc9k4z+g6T0/HC9UYP/feCVFNu2Vqd0931rLy5ct73O+CCy4wrX052dcXq4vVjoFj/ZoDRLfZPnBchn3D4VjhXLZYOc9wLhvnmbPz1CaHQhPGmT09HU+XFJowNttzmenr6xiEon0uNffhMm+fzld4pUvfly5dRSpXTl8OBELq0iTTSpfHRyudbudLzRb+TWbv73bh+rcoVv5+h3PZOM/oOk9fxwsqRwzRufs8ZfV87rnnfGb1rF+/vsesnq1bt3ZUrVo1W+VwbfHTXwcCNY9IOBwrnMsWK+cZzmXjPHN2npoaMC0h4/HSEnKeYj+Q85cFqsXPmkKukPx7LH2ciynkwroljBY/ewS0lS5ILfLh+rcoVv5+h3PZOM/oOk875vGL038CHEjKli1bTEIUq7VMs4LakczF3YoVK6RRo0YyevRoGTRokFmmSVsuvfRSKVmypPzwww9m2fbt2+XUqVNSq1Yt574vvviiPPHEE/Ljjz9K/fr1zbLff/9dateubY71wgsv+F0OHeNXvHhxWTriM7l6cPsc/9qeejZV1r2ZJKc275FC1cpJnQebhsWxwrlseqy1ry01g2+1H3bdR1pE5XmGc9lipQ4CXZ9mcFJSknYz0O4LIk2bZrulz5VmQ5w3b560a9dO8uXL+fgya1xe4QuLpD/e93e2x+XpqWnL3s6dIoXkpJyU9GMVlr/llBQW/e8jIUFk69bsnbKOVSuSfij5+28JyNi3QB3P9VhHjqTkeoxfuJ5nuEldtFTir23pe7uvl0j8NS18H3D2bHHc2M18Y3NPmKTfeuI+niXStWvU/C0Kxv9Tgfr/IJb+D42FOoiV+rSOt3z0XGnxVGc5duxYptkHAipQEeT8+fMdHTt2dBQtWtSRJ0+eDLciRYo4OnTo4Jin8wHZ7KabbnLkzZvXzOk3fvx4R5MmTczzb775xrlN8+bNTdTt6vjx42a+vjJlyjhGjRrlGDNmjCMxMdFRvnx5x/79+3PU4nfw4MGAnRfsaelAzlAH9gunFr8lLlMMurf4uTai6HbR0hJGi59NgtFKF4QW+VjC/wf2ow7spzFB2MzjlxVtGbvzzjvl03/SK3tqQDx58qT5ZVlvnTp1kilTpkhhm35CfP/992Xo0KHywQcfyJEjR+Syyy6TOXPmSDMfc2DpHH1Lly6VAQMGyIgRI8zcfi1atJAxY8ZI6dKlQ1Z+AIg2HoZP52o7wNe4WW2l8zStSY7GzXbtKnGdO2dokY/LZYs8AARDrgI/DX60m1BSUpIJ+LS7UJs2bcyk5hdeeKHZZt++faZ7pE5yfvbsWfn888/NPhpE2dH9U6df0K6eevNGy+ZJQkKCzJzpR251AIgh2lXT8u23Itd0yt53Xg9TpOZqO8BnoKZdMPv1S+9f/I+4hASJGzc2R10zzRu+hR9dQwEgUgO/8ePHy7Jly0wAp3P9TJw4USpUqOBx2127dsm9994rX375pSxfvlzeeusteeCBB3Lz8gAAm2nGzccfFvnDJRPnBQki48b5//1ZG0d0DN8unUvbw6hza4yfbgcExD+tdOeWLJG18+dL3euvl7wtW9JKByCq5Wo6h/fee8/cX3XVVTJ37lyvQZ/SdV988YVpDdTWQWtfAEDkBn3duonsduuCqQGcLvd3Ggb9rq2BonLvB2J1DBmb/VkrgKzFx4ujeXPZ1ayZuecNBiDa5Srw27hxo2nt03FvefL4PlR8fLwMHDjQuS8AIHK7d2pPOU95oa1l/ftn7AaaFW0dnDVL50TNuFxb+nR5TnrfAQCAAAV+1hi9GjVq+L1P9erVM+wLAIg8msfCZXiUx+Bvx4707fylwZ3rb4Lz56VP4UDQBwCAzYFftWrVzP3+/fv93sfa1toXABB5gpWJ07W3nSZbpvcdAABhEPjdeuutZryeTpHgL91WW/tuvvnm3Lw0AMBGZOIEACCGAr++fftKvXr1ZMaMGTJq1Cif2+sUCtOnT5crrrhC+uvgDwBARLIycXrrta/LExPJxAkAQFRM57B3714zhcN9990nQ4YMMUFdz549TZbPMmXKmJY9ax4/nTB97dq1Zt2ECRPMvt5UrFgxN8UCAASZlYlTs3fGy78ZXJrKMvla2kiaxJOJEwCAaAn8KleunCFJyy+//CKPPvpolvusWrXKtBJ6o8c7d+5cbooFAAgBTbry3aDZUunlviJp6cu+lHayOz5Btg8cJ43IygIAQHR09VQ6xi/QNwBABJg9Wxq91E3KpunM6/8ql7bLLPd7Ij8AABDeLX6TJk0KXEkAABE5kV+mSdf1BzztDaJjuTt3pr8nAACRHvjpeD4AQAzKzkR+LVqIHVwnj1+2TKRNG2JQAEDsynVXTwBADArWRH4Bor1ML7nk3+ft2um4dHqfAgBiF4EfACCqJvLT4E6zje7KOPTQPNflBH8AgFhE4AcAiJqJ/FyGHmZiLdOhh67dQAEAiAW5GuNn0ekX5s6dK0lJSbJlyxY5ceKEpPr4X1WnbVi0aFEgXh4AYOdEfhrkuUZaVjBow0R+ETD0EACAyAz8vvnmG+nVq5ds377duSyrKRk04NP1rvP/AQAikM7TN2tWehOba7SlLYEa9Nkwj1+YDz0EACAyA7+1a9fKddddJ2fPnjXBXIECBaR69epSokQJyZOHXqQAEPU0uNMpG7QJTaMpHdOn3TttSp8ZxkMPAQCI3MDv6aefljNnzkj+/PnllVdekd69e5vgDwAQQzTIC5N+k9bQQ03k4qnziXY20fUhHnoIAIDtctUst3z5ctNl87///a888MADBH0AgLAYeqjcRxTYOPQQAIDIDvySk5PNvXb3BAAgnIYeVqiQcbm29OlyG4YeAgAQ2V09K1euLBs3bpSUlJTAlQgAgOgaeggAQGQHfjfccIMJ/JYtWyaNGzcOXKkAAIieoYcAAER2V89+/fpJuXLl5KWXXpJt27YFrlQAAAAAgPAI/EqXLi3z5s2TggULSsOGDeXtt9+WY8eOBa50AAAAAAD7J3C/7LLLTFdPDfzuv/9+k92zVKlSUqhQoSz302ygmzdvzu3LAwAAAACCHfh9/PHHcvfdd8uJEyfMJO56279/v8/9NPADAAAAAIR54Pf999/LLbfcIqmpqeZ5pUqVTAtgiRIlJE+eXPUiBQAAAACEQ+A3YsQIE/QVL15cpk6dKu3atQtUuQAAAAAAAZKrZrlVq1aZLpvDhw+PiKDv6NGj0qdPH5OUpnDhwtKyZUtZvXq1X/uuXLlSHnzwQbnyyislX758dFUFAAAAEBuB36lTp8z91VdfLeEuLS1N2rdvL9OmTZOHH35YRo0aZcYitmjRQv744w+f+2v20okTJ5qAr2rVqiEpMwAAAADYHvhVqVIlQwAYzmbNmiXfffedTJ48WYYNGyYPPfSQLF26VOLj481zXzRbqU5Voa2crVu3DkmZAQAAAMD2wK9r164mi+eCBQskEgK/Cy+80JTZol0+u3fvLp999pmcOXMmy/11X52vEAAAAABiKrnLo48+KtOnT5exY8dK586dpX79+hKu1qxZI/Xq1cuUbbRBgwYyYcIE2bRpk9SpUycor61BpWtgefz4cXOfkpJibggt65pz7e1DHdgvbOsgJUXyOR+mmOfhIr0o+Vz+fkffsYJxvHAWtp+DGEId2I86sF+orn2uAr+iRYvKokWL5KabbpJmzZrJgAED5Oabb5YaNWpIgQIFJJzs2bPHlNFduXLlzP3u3buDFviNHDnSJMBxt2TJEp8T3SN4Fi5caHcRYh51YL9wq4P45GTp8M9j7U2SGkb/lyQnx4v8UzotW4ECqQE51uLFiwN2rNyWKxjHiwTh9jmIRdSB/agD+4Rq2FyuAj8dH2fRLp8vvPCCuflDk6ScO3cux4lazp4969e2+fPnN691+vRp89idFaDq+mAZMmSIDBw4MEOLX2JioskqWrJkyaC9Lrz/qqJ/3HSspmZoRehRB/YL2zo4edL5sG3btiKFC0sYFs2ULTdFcz1Wq1atpESJfGFRrmAcL5yF7ecghlAH9qMO7Hfo0KHwD/w02MvqebAsW7bMBE3+2Lhxo9SqVcuMz/M0ji85OdncB3P8ngacnoJO/XDxAbMP199+1IH9wq4OXMpiyhVGZXMtSvp1C+Sx8oVFuYJxvEgQdp+DGEQd2I86sE+ornuuAj9/smEGgwZykyZN8mtbqyun3mt3T3fWsvLlywe4lAAAAAAQHiIy8Ctbtqz06tUrW/vUrVtXkpKSTDdR1wQvK1asMOPsdFwiAAAAAESjXE3nkJsMm5oIJpS6desm+/btk9mzZzuXHTx4UGbOnCkdO3bM0BVz8+bN5gYAAAAAEustftmhXSqnTJkiH3zwgfz6669m2ZgxY0Ia+DVq1Eh69+4tGzZskFKlSsmbb74pqampmTJuXnPNNeZ+27ZtzmV//fWXKbvSSdzViBEjzH2lSpXkzjvvDNm5AEDUSnXJILlsmUibNppJzM4SAQAQFYIa+GmmTG1he//99026au1maSWB0UyboaQZSOfNmyeDBw+WV1991ZTtqquuksmTJ0vNmjV97r9161YZOnRohmXW8+bNmxP4AUBuaY+Mvn3/fd6unUhCgsi4cSJdu9pZMgAAIl5QAj+dn06DPQ36/v777wwZPzXJSpcuXeTGG2+UUDv//PNl4sSJ5pYV15Y+S4sWLUKWtRQAYjLo69ZN/7PIuHzXrvTls2YR/AEAEA6B32+//WaCvalTp8rOnTvNMitQSkhIMIGedrds0qRJyFv7AABh3r2zX7/MQZ/SZfp/Rv/+Ip0729rtk16oAICYDfx0ssHp06ebgO+nn37KEOyVKFFCjh49aoK8l156Sbp37x6YEgMAoktSksg/Pxh6pP+v7NiRvl2LFmIHeqECAGIu8EtJSZEvvvjCBHtffvmleW4Fe+edd560a9dO7rjjDmnfvn1QJ0UHAEQJD3Os5mq7AKMXKgAgpgK/H374wQR7H330kRw5ciRDkpb//Oc/JtjTVj0dRwcAgN/KlQvsdrHXCxUAgMAFftbYPKt1TzNharB3++23S+XKlf09DAAAGTVtmt5vUpvQPEVYGl3pet0uxCKgFyoAAMHp6lm0aFEzHULPnj2zuysAAJlpU5kOltN+kxrkuQZ/VjKwsWNtaVIL816oAAD4LY//m6Z37dTpGe666y6pV6+evPLKK2ZidgAAckUHyelguQoVMi7Xlj4bB9GFcS9UAACCE/gtXbpUevXqJUWKFDEB4Nq1a81k6BUrVpTWrVub8X/WnH0AAGSbBnc6j+qSJSLTpqXfb91qa+YUqxeqt1mIdHlioi29UAEACE7g16xZM3n33Xdl3759Zq6+tm3bSp48eSQ1NVUWL14svXv3lrJly8qtt94q8+bNM8sBAMgW7c6pg+VuvTX93uaMKVYvVOUe/NncCxUAgOB19VQFChQwwd38+fNlx44dMmrUKKlTp45pBTx16pTJ+tmxY0cpR78XAEAUCNNeqAAABDfwc6UtfIMGDTLdPtesWSP9+/eXMmXKmCDw4MGDJguoGjhwoPTr10+SNO0ZAAARJgx7oQIAELrAz9Xll19ukr3s3LlT5syZY+b0y58/vwkCd+/eLa+//rq0aNHCtAQ++OCDsmjRokC9NAAAsdYLFQAAewI/S3x8vLRr105mzJghe/fulfHjx8vVV19t1mkQqGMEdZmOEQQAAAAARGDg56pYsWJy7733yrJly2Tz5s0ybNgwqVatmgkArYngAQAAAAARHPi5qly5sgn8/vjjDzPWTwNCAAAAAEDw5RUb/Oc//zE3AAAAAEAUtfgBAAAAAOxB4AcAAAAAUY7ADwAAAACiHIEfAAAAAEQ5Aj8AAAAAiHIEfgAAAAAQ5Qj8AAAIsdTUfx8vXx6X4TkAAMFA4AcAQAjNni1yySX/Pu/YMa9Urpy+HACAYCHwAwAgRDS469ZNZNeujMv1uS4n+AMABAuBHwAAIaDdOfv1E3E4Mq+zlvXvn7EbKAAAgULgBwBACCQliezc6X29Bn87dqRvBwBAoBH4AQAQAnv2BHY7AACyI6YCv6NHj0qfPn2kdOnSUrhwYWnZsqWsXr3a535paWkyefJk6dSpkyQmJpp9L730UhkxYoQkJyeHpOwAgMhWrlxgtwMAIDtiJvDT4K19+/Yybdo0efjhh2XUqFGyf/9+adGihfzxxx9Z7nvq1Cnp3bu3HDhwQO6//34ZO3asNGjQQIYNGybXX3+9ODwN2AAAwEXTpiIJCSJxcZ7X6/LExPTtAAAItLwSI2bNmiXfffedzJw5U7pp6jQR6d69u9SoUcMEcBoQenPeeefJt99+K02aNHEuu/fee6Vy5cpm30WLFsm1114bkvMAAESm+HiRcePSs3dqkOf6m6EVDI4dm74dAACBlieWAr8LL7xQunbt6lymXT41+Pvss8/kzJkzWQZ+rkGfpUuXLuZ+48aNQSo1ACCa6H9Bs2aJVKiQcbm2BOpyl/+iAAAIqJgJ/NasWSP16tWTPHkynrJ22dSunJs2bcr2Mffu3WvuS5UqFbByAgCimwZ327aJLFx4TgYOXGXut24l6AMABFfMdPXcs2ePNGvWLNPycv+Mot+9e7fUqVMnW8fUcYLFihUz4/yyoq2Jri2Kx48fN/cpKSnmhtCyrjnX3j7Ugf2oA/s1aZIiJ0/ukiZNLpG0NIekpeXsOOlVmM/l/5XclSvQxwtnfA7sRx3YjzqwX6iufd5ITdRy9uxZv7bNnz+/xMXFyenTp81jdwUKFDD3uj47nn/+efn666/lzTfflBIlSmS57ciRI2X48OGZli9ZskQKFSqUrddF4CxcuNDuIsQ86sB+1EHk10Fysg4K7GAeL1iwQAoUSA2r40UCPgf2ow7sRx3YR3sfhkJEBn7Lli0zUzH4Q8ff1apVSwoWLOhxHJ81HYOu99eHH34oTz31lNx9993ywAMP+Nx+yJAhMnDgwAwtfjothJ5DyZIl/X5dBO5XFf3j1rp1a8mXL/1XbYQWdWA/6iB66uDkyX8ft23bVgoXzl25An28cMbnwH7Ugf2oA/sdOnQoJK8TkYGfBnKTJk3ya1urK6fea3dPd9ay8uXL+3U8/WD06NHDTA3x1ltv+bWPtjR6am3UDxcfMPtw/e1HHdiPOoj8OnDdNf1YuS1PYI8XCfgc2I86sB91YJ9QXfeIDPzKli0rvXr1ytY+devWlaSkJNNN1DXBy4oVK0x3S53WwRfdVjN51q9fXz766CPJmzciLx8AAACAGBMzWT117r59+/bJ7NmzncsOHjxo5vXr2LFjhha5zZs3m5t7l1Ft5dO5++bMmZOtrqEAAAAAYKe8sRT4NWrUSHr37i0bNmwwUzBoYpbU1NRMiVeuueYac79N822LyIkTJ8w4hyNHjsjgwYNl7ty5GbavVq2aNG7cOIRnAwAAAAD+i5nALz4+XubNm2cCt1dffdVk8bzqqqtk8uTJUrNmTZ8DLnfs2GEeP/HEE5nW9+zZk8APAAAAQNiKmcBPnX/++TJx4kRzy4rV0mfR7p0OhyPIpQMAAACA4IiZMX4AAAAAEKsI/AAAAAAgyhH4AQAAAECUI/ADAAAAgChH4AcAAAAAUY7ADwAAAACiHIEfAAAAAEQ5Aj8AAAAAiHIEfgAAAAAQ5Qj8AAAAACDKEfgBAAAAQJQj8AMAAACAKEfgBwAAAABRjsAPAAAAAKIcgR8AAHBKTf338bJlGZ8DACIXgR8AADBmzxa55JJ/n7drJ1K5cvpyAEBkI/ADAAAmuOvWTWTXrozL9bkuJ/gDgMhG4AcAQIzT7pz9+ok4HJnXWcv696fbJwBEMgI/AABiXFKSyM6d3tdr8LdjR/p2AIDIROAHAECM27MnsNsBAMIPgR8AADGuXLnAbgcACD8EfgAAxLimTUUSEkTi4jyv1+WJienbAQAiE4EfAAAxLj5eZNy49MfuwZ/1fOzY9O0AAJGJwA8AAEjXriKzZolUqJBxubYE6nJdDwCIXHntLgAAAAgPGtx17pyevVMTueiYPu3eSUsfAEQ+Aj8AAOCkQV6LFnaXAgAQaHT1BAAAAIAoR+AHAAAAAFGOwA8AAAAAolxMBX5Hjx6VPn36SOnSpaVw4cLSsmVLWb16tV/7vv3229K8eXO58MILJX/+/FKlShXp3bu3bNu2LejlBgAAAIDciJnkLmlpadK+fXv5+eefZfDgwVKqVCl58803pUWLFvLTTz9J9erVs9x/zZo1Jtjr1KmTnH/++bJ161YTDM6ZM8ccs3z58iE7FwAAAADIjpgJ/GbNmiXfffedzJw5U7p162aWde/eXWrUqCHDhg2TadOmZbm/BonubrjhBqlfv768//778sQTTwSt7AAAAACQG3liKfDTbppdXWag1S6fGvx99tlncubMmWwfs3Llys4upAAAAAAQrmKmxU+7atarV0/y5MkY6zZo0EAmTJggmzZtkjp16vg8zqFDhyQ1NVW2b98uzzzzjFl2zTXXZLmPBpWugeXx48fNfUpKirkhtKxrzrW3D3VgP+ogeuogffd8zmNRpf7jc2A/6sB+1IH9QnXtYybw27NnjzRr1izT8nLlypn73bt3+xX4VahQwRnElSxZUl599VVp3bp1lvuMHDlShg8fnmn5kiVLpFChQtk4CwTSwoUL7S5CzKMO7EcdRH4dJCfHi0gH83jBggVSoEBqgEoWO/gc2I86sB91YJ9Tp06F5HXyRmqilrNnz/q1rWbgjIuLk9OnT5vH7goUKGDudb0/5s+fL8nJybJx40aZMmWKnDx50uc+Q4YMkYEDB2Zo8UtMTDRZRTV4ROh/VdE/bhqw58uX/is5Qos6sB91ED118E8nEqNw4evk2msdEq+xIHzic2A/6sB+1IH9tEdhKERk4Lds2TITNPlDA7RatWpJwYIFPY7j0yBO6Xp/WK97/fXXS+fOneXSSy+VIkWKyMMPP+x1Hw04PQWd+uHiA2Yfrr/9qAP7UQeRXQezZ4v07fvv844d80pCgsi4cSIuQ9rhA58D+1EH9qMO7BOq6x6RgZ8GcpMmTfJrW6srp95rd0931rKcTMdQrVo1ueKKK2Tq1KlZBn4AAASaBn2apNrhyLh816705bNmEfwBACI88Ctbtqz06tUrW/vUrVtXkpKSTDdR1wQvK1asMOPsdFqHnNAuojnJCAoAQE6lpor065c56FO6LC5OpH9/kc6dhW6fAIDYms5B5+7bt2+fzNafSP9x8OBBM69fx44dM3TF3Lx5s7lZzp07J0eOHMl0zJUrV8q6devMXH4AAIRKUpLIzp3e12vwt2NH+nYAAERsi19OA79GjRpJ7969ZcOGDVKqVCkzKbtOzeCecdOanmHbtm3m/u+//zbJWG6++WapXbu2FC5c2AR82t20ePHiMnToUFvOCQAQmzyMXMjVdgCA6BczgV98fLzMmzdPBg8ebKZg0C6aV111lUyePFlq1qyZ5b7aFfSee+4x0y/oRPC6r44JvPXWW+Wpp55yTuQOAEAo/DN8PWDbAQCiX8wEfur888+XiRMnmltWrJY+y3nnnSdjx44NcukAAPBP06ZisndqIhdP4/x0jJ+u1+0AAIipMX4AAEQLTdiiUzZYQZ4r67n+XkliFwCAhcAPAIAIpFM16JQNFSpkXK4tfUzlAACI6a6eAABEEw3udMoGzd6piVx0TJ9276SlDwDgjsAPAIAIpkFeixZ2lwIAEO7o6gkAAAAAUY7ADwAAAACiHIEfAAAAAEQ5Aj8AAAAAiHIEfgAAAAAQ5Qj8AAAAACDKMZ2DDRwOh7k/ceKE5MuXz+7ixJyUlBQ5deqUHD9+nOtvE+rAftSB/agD+1EH9qMO7Ecd2E9jAtcYIVgI/Gxw6NAhc1+lShW7iwIAAAAgTGKE4sWLB+34BH42uOCCC8z99u3bg1q58Ex/0UpMTJQdO3ZIsWLF7C5OTKIO7Ecd2I86sB91YD/qwH7Ugf2OHTsmFStWdMYIwULgZ4M8edKHVmrQxwfMPnrtuf72og7sRx3YjzqwH3VgP+rAftRB+MQIQTt+UI8OAAAAALAdgR8AAAAARDkCPxvkz59fhg0bZu4Relx/+1EH9qMO7Ecd2I86sB91YD/qIHbqIM4R7LyhAAAAAABb0eIHAAAAAFGOwA8AAAAAohyBHwAAAABEOQI/AAAAAIhyBH5B8Mcff8gtt9wiCQkJUqhQIalVq5Y888wzcurUqQzbfffdd3L11VebbcqWLSt9+/aVv//+27Zyx1odtGjRQuLi4jLdrrvuOlvLHi1++ukncy11MtiiRYtKmzZtZO3atR635bNgbx3wWcg9fb9qRja9ZhdccIG5fpMnT/a47caNG812RYoUMdveeeedcuDAgUzbpaWlyahRo6RKlSpSoEABueyyy2T69OkhOJvIFOg62LZtm8fPhd5mzJgRorOKzjpYuXKlPPjgg3LllVdKvnz5zHZZeeedd+Tiiy82n4Pq1avLa6+9FsSziGzBqANvn4MXXnghyGcTvXWQlpZmlnXq1EkSExOlcOHCcumll8qIESMkOTk5aJ+DvDk+K3i0Y8cOadCggRQvXlwefvhhU+Hff/+9eQPol7DPPvvMbKdfvq655hpTga+88ors3LlTXnrpJROwzJ8/3+7TiIk6UBoYjhw5MsP+5cuXt6HU0WX16tUmkNM/Znrd9Q/cm2++Kc2bNzf/2dSsWdO5LZ8F++tA8VnInYMHD5oflypWrCiXX365LF261ON2+v5u1qyZ+fv0/PPPmy8I+n5ft26dqZfzzjvPue1///tf88Xq3nvvlauuusr87brtttvMlwj9YQvBrwN16623Srt27TIsa9y4cVDPJdrrYN68eTJx4kTzY0bVqlVl06ZNXo85fvx4uf/+++XGG2+UgQMHSlJSkvlxUH/Iffzxx4N4NpEpGHWgWrduLT169Miw7Iorrgho2WOpDk6dOiW9e/eWRo0amfd3mTJlnN9VFy1aJIsXL84QjAfsc6DTOSBwnnvuOZ0ew7F+/foMy3v06GGWHz582Dy//vrrHeXKlXMcO3bMuc3bb79ttlmwYEHIyx2LddC8eXNH7dq1bSpldGvXrp3j/PPPdxw8eNC5bPfu3Y4iRYo4unbtmmFbPgv21wGfhdxLTk527Nmzxzz+8ccfzft30qRJmbZ74IEHHAULFnT89ddfzmULFy40248fP965bOfOnY58+fI5HnroIeeytLQ0R9OmTR0JCQmOc+fOBf2cYr0Otm7dapaNHj06RGcQO3Wwd+9ex6lTp8xjfY97+zqq25QsWdLRvn37DMtvv/12R+HChZ3/nyN4daB0nevfIuS+Ds6cOeP49ttvM+07fPhws73+TQrG54CungF2/Phxc3/hhRdmWF6uXDnJkyeP+SVRt1m4cKHccccdpguWRX9J0W4nH330UcjLHWt14OrcuXN0Kwww/SXq2muvlZIlS2a4/traNGfOHOf15rNgfx244rOQczrprnZT9uXjjz+WDh06mF+CLVpPNWrUyPB+19a9lJQU0xXLor/+PvDAA6bFSn8ZRnDrwNXJkyfl7NmzAS1vLNeB/v9csGBBn9stWbJEDh06lOFzoB566CFTJ3Pnzs1VeaNRoOvA1enTp712Q0T26kC/izZp0iTT8i5duji7owfjc0DgF2A6Vkbdfffdpgubdjv88MMP5f/+7/9Mk6z24dXuJPoFq379+pneBHXr1pU1a9bYVPrYqQOLdm3Q5zr+ST+kQ4cONV+2kDtnzpzx+B+KjuHTL0/r1683z/ks2F8HFj4Lwbdr1y7Zv39/pve70u7pru93faz1oV2g3bez1iO4dWAZPny4+SFKx9Vol9uvvvoqRKWFVR/u9aXj0vSHXD4HoaPj0fRvkv6/cskll8i0adPsLlJU2rt3r7kvVapUUD4HjPELMB3I+eyzz5pxA59//nmGsRo6YFPt2bPH+eu7O12mv9QjuHWgqlWrJi1btpQ6deqYX0xmzZpl1usXYA0UkXM6fuyHH36Q1NRUiY+PN8s02FixYoXzy5fis2B/HSg+C6Hh6/1++PBhE7Drr8W6rf4i755wwdp39+7dISp17NaBfqHShEj6C3yFChVky5YtZhzy9ddfb/5vad++vQ1nEHv1pX+/dPyT+4+D2puBz0FoaMtU9+7dTaIpveZvvPGG3H777XLs2DHTCwGBowm9tAeU/p0JxueAwC8IKleubAaO6wBMrRBtgtUgRH9F12Qj2lSu9D8Wd/qLorUewasDKzuSK83q1qdPH3n77bdlwIABZsAtcka7I+h/Btrq+thjj5nEIhpIWF+6rPc4nwX760DxWQgNX+93axtdb91ntR2CWwfaFXTBggWZPhva2vHoo48S+IWA1oX78AwL/0eEzrfffpvh+V133WVam5588knp1atXtruMwjP9nvr111+bRGwlSpQIyueArp4Bpime9QuTZkrSTGxdu3Y1X6p69uxpsu5oH13rA6K/KrrTvtN8gIJfB97of+ZKP3jIOc08pf8haFeQ2rVrm5akzZs3mwBEabcpxWfB/jrwhs9C4Pl6v7tuo/f+bIfg1YEnmiVaM/H9/vvvZqwlgkvrwtvYSv6PsI8GIfoj+tGjR022dOSe9q556qmnzI+17q2ogfwcEPgFmEbpmt5WU6O70nk6NOWq9sO1uphYv7y70mWkUA9+HXijqe+VdvdB7jz33HOyb98+013zl19+kR9//NG0OilNoqD4LNhfB97wWQg8X+93DSqslijdVsd6pCfUy7id4rMR/Drwhs9GaOtLu6vruExX+iVYf8Tlc2AfPgeBo0nuNKmd9iJ46623gvo5IPALMP2SpZXjzkqSoIksdILGvHnzyqpVqzJVoCYj0aQWCG4deKNjOFTp0qWDWMLYcf7555u55LS1yWo90oC8Vq1a5jmfBfvrwBs+C4Gn48T0erq/35XOH+f6ftfH+kOVa2Y3ZY3R5LMR/Drwhs9G6Fj14V5f+lx/xOJzYB8+B4Ghf9N1HLEmbtGswvqdKJifAwK/ANNf0bVFyX0izOnTp5uB4jpRpk4aq6mjp0yZIidOnHBu88EHH5hU6jfddJMNJY+tOtBpBNy7+ugv61byl7Zt24a0zLHSjUFbnPr372/qQfFZsL8O+CyElo471uk0NNuwRSfr1b9Xru/3zp07S758+UwPBtd60V+DNXjxlAYcga2DAwcOZNpXkyK9++675v8RTwliEFitWrUyrbCalduVPtcMxYyzDD5PnwP9/3rs2LEm86SO9UPO6A97+h7WvBT6N8lbl81Afg5I7hJggwcPlvnz50vTpk1N/2dNLKKVqcvuueceZ3OsdsHS/7h1Ti0dj6ZjBV5++WWTQUyzUiK4dbB06VK59dZbze2iiy4yA2M/+eQTM4BZ66NevXp2n0ZEW7ZsmTzzzDPm/azXX7NLTpo0yby3+/Xrl2FbPgv21sHq1av5LATI66+/bsa8WBnWvvjiC+c4sEceecT80KHjLmfOnGmyqGo96A8co0ePNi2yOnbMoq2yGqDrOu2toNMIfPrpp6bb7tSpU52ZWhG8OtDxsDou9pprrjH/b2zbtk3Gjx9vMt+OGzfOtnOMhjr466+/zA98rq0Y1o9NlSpVMkl0lH4R1izdOl+ZBuX6Q5R+BvTHQv2/Q78MI7h1oBk89W9Px44dTcIj7RKtP35s377d7O8t6Uise91HHeiPr/p+PnLkiPne6j4Xn2bbbty4ceA/B35P9Q6/rVixwnH99dc7ypYt68iXL5+jRo0ajueee86RkpKSYbukpCRHkyZNHAUKFHCULl3a8dBDDzmOHz9uW7ljqQ62bNniuOmmmxyVK1c2179QoUKOK6+80vHWW2850tLS7C5+xPvzzz8dbdq0cZQqVcqRP39+R61atRwjR450nDlzxuP2fBbsqwM+C4FTqVIlHZDn8bZ161bnduvXrzd1o9e6RIkSjttvv92xd+/eTMdLTU11PP/88+a45513nqN27dqOKVOmhPisYrcOpk2b5mjWrJn5m5Q3b17zWerSpYvjp59+suHMoqsOlixZ4nWb5s2bZzrmhAkTHDVr1jSfg2rVqjnGjBnD36cQ1cFXX33laN26tfP7lH5e9LOzaNEiG88w8utg69atXtfrrWfPnkH5HMTpP4GMcAEAAAAA4YUxfgAAAAAQ5Qj8AAAAACDKEfgBAAAAQJQj8AMAAACAKEfgBwAAAABRjsAPAAAAAKIcgR8AAAAARDkCPwAAAACIcgR+AAAAABDlCPwAAIBXPXr0kLi4OHn44Ycllp06dUrKlCljrsXSpUvtLg4AZBuBHwBEGP3SqV8+/b1NnjzZ7iIjQq1cuVKmTJki5513njzxxBM+34tFixY1AZIvp0+fluLFi2fY11Mw5Xr8p59+2q8y9+rVy7nPtm3bJFAKFSokAwcONI/79+8vDocjYMcGgFAg8AMAAB499dRTJsC56667JCEhwef2f//9t3z66ac+t/vss8/k+PHjEmkeeughueCCC+Tnn3+WmTNn2l0cAMgWAj8AiGAPPPCArFu3LsvbDTfcYHcxEaGtfQsXLjSPH330UZ/bFyhQwNx/8MEHPre1trH2iRTaotmnTx/zeMSIEXYXBwCyhcAPACKYjjm69NJLs7yVKFHC7mIiAo0bN87cN2zYUC666CKf23fq1Mnca7C4d+9er9vt379fvvrqK/O4c+fOEmluu+02c68/qjDWD0AkIfADAAAZHDt2TD7++GPz+Pbbb/drnzZt2kjZsmUlNTVVpk+f7nU7XXfu3DmzbevWrSXS1KlTx9zUO++8Y3dxAMBvBH4AECM0OYaV9ML6cv/ss8/KFVdcYVoFvSWC0TFbN910k1SsWNF0zdNt69evL8OHD5cjR474fN2dO3easVFVq1Y1+5cvX960Dn399dcey+VKk3P4m6SmcuXKZjtN7pGV1atXy/333y81a9aUIkWKSOHChc1j7Ta7adMmr/vp67smDUlLS5MJEyZIkyZN5PzzzzfHueyyy+S5557zK8GJ7q9B0I033miubcGCBc2tRo0aJtiaNWuWpKSkmG31XgMlfe3rrrvO57HXr1/vLOuoUaMku3QM3pkzZ8xjLZ8/4uPj5dZbb/XZ3fP99993tpzpPqHk+l7LTWIk65roZyM5OTmk5wAAOZU3x3sCACLWH3/8YVpossp6qEFdt27dZPHixRmWa0Dw008/mdubb75pgoRGjRp5PEZSUpJ06NAhQyKPPXv2yBdffGFu/mZqDAQNtAYNGiRjx47NlJFRAz69TZw4Ud544w3nOC5vNLDT67do0aIMy61xlZ9//rm5bhoMeqLXvUuXLrJ27VqPdaO3adOmyZIlS6RFixaSL18+M63C6NGjTVfKXbt2SYUKFbyW79133zX3efPmNftll76uSkxMNIG6v+68804ZM2aMrFmzRn799VepXbt2hvUbNmwwgbe1rafzjwTW+12T2eh7PBJbLgHEHlr8ACAGaUCnwcMjjzxiAolVq1aZ1idt+bKCu2uvvdYEL9oqo1/Sdf0PP/xgvuhqq1bJkiXNeK127drJX3/9lek1tm/f7gz68uTJY1rZtJXvxx9/NF3kqlevbgK/uXPnhuSc9Vw1KNGgr1mzZiY40jFamsTk7bffNkGKdkG87777TOCWlXvvvdcERz179jTl1yD4k08+kcaNG5v1ekxvyT/27dsn//nPf5xBT6tWreS9996TFStWmP0+/PBDUwbNHunqnnvucQawVquZJ9o6qFMwqOuvv960FGaX1rG66qqrsrWfth5bwZ6nVj9rmY49rVu3roTagw8+mGUiJM3W6VoubYn1pEGDBs7H33zzTUjKDgC55gAARJQlS5Zoc5W5PfDAA45169Z5ve3bt8+537Bhw5z75cmTx7FgwQKvr/Hkk0+a7UqUKOFYtWqVx222bdvmKFeunNnutttuy7S+W7duztebNm1apvXHjx93XH755c5tPP2XtHXrVue6SZMmZXldKlWqZLbr2bNnpnVfffWV8zgTJ070uP/p06cdrVq1MtvosVJSUjKs19d3LesHH3yQ6RjJycmOSy+91KwvWbJkpmOoLl26OI/x4osvej2fEydOOA4fPpxhWdOmTc1+NWrU8Lrf7Nmzncf/5JNPHNml7xlr/2effdbv96JVP3pO+jwxMdGRlpbm3FYf6zJdN2rUqEzXVI+Vm/e6devcubNzH33/ZMegQYOc++pnICtVqlQx21133XXZeg0AsAuBHwBEGNcvw75uGux5CvzuuuuuLAOO4sWLm+1ee+21LMvy5ptvmu3y5cvn+Pvvv53L9+zZ44iPjzfrOnTo4HX/FStWhCTwswK6G2+8MctjbNiwwfl6Giy6cg1Sunbt6vUYb731lnO7n3/+OcO63377zREXF2fW3XDDDY7seu+995zHXr58ucdtOnbsaNaXKVPGY+Dpy08//eR8jfHjx2c78Nu5c6f5YUGXLV682LmtPrZ+dNBtshv45eSWncBv8uTJzv20blyDVk8aNmzoMwgHgHBCV08AiEFZZWrUrmua+MXqEpoV7TJpdS/U7o4W7Qap2R1V7969ve6vXebcx4EFmnY1tdLu+zqfiy++WEqVKmUef//99zm6fldeeaXz8ZYtWzKs026h1vjCAQMGSHZpkp3ixYubx5MmTfLYjXT+/PnmsXbP1TF+2XXgwAHnY01ak1069rBly5aZuntaj7Vra1bjE+3w7bffOsd1aoIe7SrrKdmQK6srblZTVwBAOCHwA4AINmzYMBNIeLt5S56iX2690fF+lnLlymWZ9VDHallcvwDreCmLr3FiruOlgkETjei4OKVZJ31lcjx48KDPL/S1atXyus51bN6JEycylUVpshZvCXGyolk/rXnkPvroo0zZQzW40nGK6q677pKcOHz4cK4CP2UllNEpIU6fPm1umqXUdV2g3+vWTcddZoeORe3ataucPXvWzIup4zu9JeVxZV2bkydP5uh8ACDUCPwAIAZl9YVeE7bkhGsQ4ho86JfprFx44YUSTIE4H3eFChXyuk4T2VisVk+LFVRqcHjeeeflqFxWkhcNKq1gymK1Auqk65dcckmOjq9Tblg0YMsJDaT0Gmlrq2Z91WkPtLwaUOm6cKFZOTt27GjeI1ofs2fPlkqVKvm1r3VtNIgHgEjAdA4AEIOymj/NNVjR1Pv+frFNSEjwuNxXl7lgcz2f8ePHm3n3/JHT1q5gq1evnsmeqa2HGuhZLWiaFVSnS8hNa58qXbq0xwA+O3R+RJ2uYurUqaYV0ureqsv8aU0LBS3THXfcIb/88ot5/tZbb5lsq/6yro3OawkAkYDADwCQgU7T4BoEeAvo/A2adNyZzgfnja73p/XM6q7pjbcud67no61Qrt1TQ80aP6hBg3YtzE2r30MPPWTGY27dulWqVKnibO3Tc7zlllsCEvjpXI45pQGpBn5fffVVhmXh4sknnzStkWrgwIFZjkX1xLo23qZ8AIBwQ1dPAEAG2prkmvQiJ+rUqeN8rPP2ZSWr9UWLFvUrCNFA6tChQx7X6bxsVqtjTs8nkK11VjKcrJLH+KLJZXS8n7ZaTZ482XQ7nDFjhll34403SrFixXJ87KpVqzq7suqk9jl1zTXXmDGiOuZQbzoRvC4LBxqQvvDCC865DkePHp2t/fVHCCtxT7CTEwFAoBD4AQAy0InbrS/+r776qrObXnZoVkerO6lOTp5V0Ld+/fosWw6trnSuSWfcadDjrZzagmUlUpk2bVqGrJWh1r59e2cQOnbs2BwfRzN7WhlK9frqWD8rE2tuunm6J57xFbRnRetfM4vmz5/f3PSxawuuXX744Qe5++67nVlc9b2T3XJpl1odH2iNpwSASGD/X2AAQFjRQOvhhx82j7/77jsz7UBW3Sy1q+bEiRMzLNOWns6dO5vHmiVRM1C60y/O9913n8/yWFNGaLe8zZs3Z1r/+++/y9ChQ7M8xlNPPWXuNdmIBkxHjx71uu2ZM2fkjTfekOTkZAm0GjVqmHFuShOeZNXSpF1Xs2rltJK8/PXXX/LYY4+Zx9WqVZPmzZvnupxNmzY19zr+Ta9HTr344ovmOurNamGz044dO8z113PSBDtffPFFjlpHV65c6Xzcpk2bAJcSAIKDwA8AkMkzzzzjbMkYN26c6aKowZB2lVy7dq2Zp+/111+XG264wYxx0sQY7l5++WVnV02dgkDHpOl+Ot+fjkfT+e40QUn9+vWzLMuDDz5o7rU7Y4sWLeSdd94xSWeWLVtmUvxrOfVLvOvYNHft2rWTfv36mce6n7b0DB8+XBYtWmTOR89LW840mNKgVQNfa1qEQHvzzTdNt0elAZt2f9QEKNq6pq2a2nqn10qv688//5xlQKyBpOvUE7169QpIMh0raNdxiElJSRIttIusda30vaPvKW1x9nbz9gOBvm/U5ZdfbsZXAkAkILkLACAT7Zq3cOFCE0hoinsNQKxWQE88tZpUrlzZtPZ16tTJpPLXgEdvrv73v/+ZQCWrbpxt27aVvn37mm6nO3fudLZ0WTRA0tfRsVpZGTNmjAkQn332WfPl39sch0ozT2aV+TQ3dPoKDaY0uNLgYvHixeaWE9pl8fHHHzePtbui1legxnlqYK5BunaP1e6/0UDn7LNYPwRkRX+gcL+mOs2HlRRGs4ICQKSgxQ8A4JG21ukE3BqkaLBVs2ZNsyxv3rwmgNKJ2bVlat68eSZI9ERb6H799Vd54IEHzPxomsVSAx8d6/bll1+aVjd/aKujBiDayqVBpiY20fI88cQTpvVPW/B80QBTA01NWKItbdrSqOehAZ6el857py1C2vK3Z88e8xrBoglUtKVRE7PotdBWRh1bp6+prXia/VKDC6vLpTc6bs7SunXrHGVg9aZPnz7mXgP/3HT3jDZaL9oNV+c7zG4mUACwU5wjJ6P2AQAIEG15swJA/kvKHg24rTFmH374oXTv3j1gx9YxmBqgajKcKVOmmKAY6cmPtKunjk/11MUZAMIVLX4AAESod9991zlXoTUuL1B0EnYrac7zzz/vcx7FWKAZQTXo05ZrnQcQACIJgR8AABFIM5xqIhilXQ51XGag3X///abVT6cvsF4rllkt0zo+kInbAUQakrsAABAhdu3aZZKL6OThmtRFM4/qWDOdciMYdNyhjkPUVq5gZTmNFHrddX5DvQXregNAMBH4AQAQIXSc3TfffJNhmWYptaaHCAZNMOMryUwsKFSokJkCAgAiFYEfAAARGIRo9s/+/ftLz5497S4OACACkNUTAAAAAKIcyV0AAAAAIMoR+AEAAABAlCPwAwAAAIAoR+AHAAAAAFGOwA8AAAAAohyBHwAAAABEOQI/AAAAAIhyBH4AAAAAINHt/wE5oU196MsL5QAAAABJRU5ErkJggg==;" parent="1" vertex="1">
          <mxGeometry x="560" y="200" width="256.05" height="120" as="geometry" />
        </mxCell>
      </root>
    </mxGraphModel>
  </diagram>
</mxfile>
